<?xml version="1.0" encoding="utf-8"?>
<!-- Generator: Adobe Illustrator 16.0.4, SVG Export Plug-In . SVG Version: 6.00 Build 0)  -->
<svg version="1.2" baseProfile="tiny" id="Layer_1" xmlns="http://www.w3.org/2000/svg" xmlns:xlink="http://www.w3.org/1999/xlink"
	 x="0px" y="0px" width="144px" height="39px" viewBox="0 0 144 39" overflow="visible" xml:space="preserve">
<g>
	<path fill="#FFFFFF" d="M67.281,32.834h-3.069l-0.525-3.512h-3.732l-0.526,3.512h-2.792l3.098-19.353h4.451L67.281,32.834z
		 M60.341,26.697h2.93l-1.465-9.787L60.341,26.697z"/>
	<path fill="#FFFFFF" d="M72.064,13.482h9.399v2.764h-3.179v16.588h-3.043V16.246h-3.178V13.482z"/>
	<path fill="#FFFFFF" d="M87.85,18.126c0-3.097,1.632-4.865,4.617-4.865c2.986,0,4.617,1.769,4.617,4.865v10.062
		c0,3.098-1.631,4.867-4.617,4.867c-2.985,0-4.617-1.769-4.617-4.867V18.126z M90.892,28.383c0,1.381,0.608,1.907,1.575,1.907
		c0.968,0,1.576-0.526,1.576-1.907V17.932c0-1.383-0.608-1.907-1.576-1.907c-0.967,0-1.575,0.524-1.575,1.907V28.383z"/>
	<path fill="#FFFFFF" d="M110.796,27.221l2.074-13.739h4.23v19.353h-2.876V18.955l-2.101,13.879h-2.876l-2.266-13.686v13.686h-2.654
		V13.482h4.229L110.796,27.221z"/>
	<path fill="#FFFFFF" d="M124.62,13.482h3.041v19.353h-3.041V13.482z"/>
	<path fill="#FFFFFF" d="M144,25.618v2.57c0,3.098-1.548,4.867-4.534,4.867c-2.985,0-4.534-1.769-4.534-4.867V18.126
		c0-3.097,1.549-4.865,4.534-4.865c2.986,0,4.534,1.769,4.534,4.865v1.88h-2.875v-2.074c0-1.383-0.608-1.907-1.576-1.907
		s-1.575,0.524-1.575,1.907v10.451c0,1.381,0.607,1.879,1.575,1.879s1.576-0.499,1.576-1.879v-2.766H144z"/>
</g>
<g>
	<g>
		<path fill="#41D305" d="M72.774,5.62l2.213,0.023c0.182,0.002,0.335,0.012,0.462,0.03c0.126,0.019,0.229,0.043,0.31,0.076
			c0.082,0.033,0.145,0.073,0.188,0.123c0.045,0.046,0.076,0.102,0.095,0.167c0.021,0.063,0.032,0.135,0.033,0.215
			c0.003,0.08,0.003,0.167,0.003,0.262c-0.002,0.1-0.005,0.191-0.01,0.275c-0.006,0.084-0.021,0.161-0.046,0.229
			c-0.026,0.068-0.066,0.127-0.121,0.178c-0.056,0.05-0.134,0.094-0.234,0.127c-0.101,0.033-0.228,0.059-0.381,0.074
			c-0.154,0.017-0.345,0.023-0.568,0.021l-1.593-0.017l-0.012,1.165l-0.369-0.004L72.774,5.62z M73.129,7.097l1.591,0.017
			c0.164,0.002,0.301,0,0.414-0.006c0.111-0.003,0.202-0.014,0.276-0.027c0.072-0.015,0.128-0.036,0.169-0.064
			c0.039-0.028,0.069-0.063,0.089-0.109c0.018-0.046,0.03-0.101,0.034-0.166c0.003-0.064,0.006-0.142,0.006-0.23
			c0.002-0.083,0-0.155-0.001-0.214c-0.002-0.061-0.013-0.112-0.031-0.152c-0.019-0.041-0.049-0.073-0.087-0.098
			c-0.039-0.025-0.096-0.044-0.168-0.059s-0.164-0.025-0.274-0.028c-0.114-0.006-0.251-0.009-0.414-0.011l-1.592-0.017L73.129,7.097
			z"/>
		<path fill="#41D305" d="M73.346,8.806l-0.84-0.009l0.036-3.415l2.446,0.026c0.188,0.002,0.353,0.013,0.493,0.032
			c0.147,0.02,0.267,0.05,0.366,0.09c0.119,0.049,0.209,0.108,0.274,0.184c0.066,0.068,0.116,0.155,0.146,0.255
			c0.026,0.084,0.041,0.176,0.043,0.277c0.002,0.082,0.002,0.173,0.002,0.271c-0.002,0.103-0.004,0.2-0.01,0.288
			c-0.007,0.106-0.027,0.205-0.06,0.296c-0.04,0.105-0.103,0.196-0.183,0.271c-0.079,0.073-0.187,0.132-0.318,0.177
			c-0.118,0.04-0.265,0.068-0.433,0.086c-0.162,0.016-0.356,0.022-0.595,0.021l-1.356-0.015L73.346,8.806z M73.366,6.862
			l1.356,0.015c0.15,0.002,0.286,0.001,0.399-0.003c0.101-0.004,0.181-0.013,0.24-0.024c0.062-0.012,0.08-0.025,0.08-0.025
			c0.013-0.022,0.021-0.049,0.023-0.096c0.004-0.063,0.006-0.136,0.006-0.22c0.002-0.077,0.001-0.145,0-0.199
			c-0.002-0.043-0.009-0.062-0.012-0.067c0,0.004-0.022-0.009-0.085-0.022c-0.062-0.012-0.143-0.02-0.24-0.024
			c-0.108-0.003-0.244-0.008-0.405-0.01l-1.354-0.014L73.366,6.862z"/>
	</g>
	<g>
		<path fill="#41D305" d="M84.754,8.693l-0.367-0.004l0.006-0.551c0.001-0.09,0.001-0.167-0.003-0.232
			c-0.001-0.063-0.013-0.119-0.03-0.166c-0.018-0.045-0.047-0.083-0.086-0.112c-0.039-0.028-0.096-0.051-0.169-0.066
			c-0.071-0.016-0.164-0.028-0.275-0.037c-0.111-0.005-0.249-0.01-0.412-0.012l-1.654-0.019l-0.012,1.166l-0.369-0.004l0.032-2.943
			l2.083,0.021c0.224,0.002,0.414,0.013,0.567,0.031s0.28,0.043,0.38,0.076c0.101,0.034,0.177,0.074,0.23,0.122
			c0.055,0.047,0.095,0.104,0.119,0.167c0.023,0.064,0.036,0.136,0.04,0.215c0.004,0.08,0.005,0.167,0.004,0.262
			c-0.001,0.123-0.012,0.231-0.028,0.323c-0.02,0.093-0.05,0.172-0.091,0.235c-0.041,0.064-0.096,0.117-0.164,0.155
			C84.486,7.36,84.401,7.386,84.298,7.4c0.104,0.018,0.185,0.044,0.246,0.083c0.061,0.04,0.106,0.091,0.141,0.152
			c0.03,0.062,0.053,0.135,0.062,0.219s0.014,0.179,0.013,0.289L84.754,8.693z M81.768,7.19l1.713,0.018
			c0.164,0.002,0.301,0,0.414-0.005c0.112-0.004,0.204-0.014,0.275-0.027c0.074-0.015,0.13-0.036,0.17-0.064s0.07-0.064,0.089-0.11
			c0.02-0.046,0.031-0.1,0.035-0.165c0.003-0.065,0.006-0.141,0.006-0.23c0.002-0.083,0.001-0.155-0.001-0.214
			c-0.003-0.06-0.013-0.111-0.031-0.153c-0.019-0.041-0.048-0.073-0.086-0.099c-0.04-0.023-0.097-0.042-0.17-0.058
			c-0.071-0.015-0.163-0.024-0.274-0.028c-0.113-0.006-0.25-0.009-0.414-0.011l-1.714-0.019L81.768,7.19z"/>
		<path fill="#41D305" d="M84.987,8.933l-0.84-0.009l0.009-0.788c0.001-0.086,0.001-0.158-0.002-0.221
			c-0.003-0.049-0.011-0.078-0.015-0.09c-0.007-0.006-0.024-0.02-0.086-0.033c-0.062-0.014-0.145-0.025-0.236-0.029
			c-0.121-0.007-0.256-0.012-0.402-0.013l-1.418-0.016l-0.013,1.165l-0.84-0.009l0.037-3.415L83.499,5.5
			c0.225,0.003,0.425,0.014,0.593,0.032c0.172,0.02,0.312,0.049,0.428,0.086c0.135,0.045,0.239,0.101,0.314,0.172
			c0.08,0.07,0.143,0.157,0.18,0.258c0.032,0.086,0.052,0.183,0.057,0.287c0.004,0.084,0.005,0.177,0.004,0.276
			c-0.001,0.134-0.013,0.257-0.033,0.364c-0.023,0.124-0.064,0.231-0.123,0.322C84.889,7.34,84.855,7.38,84.82,7.416
			c0.028,0.033,0.052,0.069,0.072,0.107c0.046,0.09,0.075,0.191,0.09,0.303c0.011,0.094,0.014,0.197,0.014,0.319L84.987,8.933z
			 M82.006,6.956l1.477,0.016c0.153,0.001,0.288,0.001,0.402-0.003c0.099-0.004,0.18-0.013,0.24-0.025
			c0.06-0.011,0.079-0.024,0.079-0.024c0.012-0.022,0.021-0.049,0.023-0.097c0.003-0.062,0.006-0.135,0.007-0.219
			c0.001-0.078,0-0.145-0.004-0.201c0-0.042-0.008-0.061-0.01-0.066c0.002,0.002-0.021-0.009-0.084-0.022
			c-0.062-0.012-0.142-0.021-0.239-0.025c-0.11-0.003-0.246-0.007-0.406-0.009l-1.479-0.016L82.006,6.956z"/>
	</g>
	<g>
		<path fill="#41D305" d="M92.632,5.775c0.224,0.003,0.413,0.018,0.566,0.047s0.28,0.072,0.379,0.129s0.175,0.127,0.228,0.212
			c0.052,0.084,0.091,0.184,0.114,0.298c0.024,0.114,0.037,0.242,0.041,0.385c0.002,0.143,0.003,0.301,0.001,0.477
			c-0.002,0.172-0.006,0.33-0.012,0.474C93.943,7.939,93.928,8.068,93.9,8.18c-0.025,0.114-0.066,0.212-0.12,0.296
			c-0.055,0.085-0.132,0.153-0.232,0.208c-0.1,0.052-0.228,0.093-0.382,0.119c-0.154,0.027-0.344,0.037-0.568,0.035L91.49,8.827
			c-0.224-0.002-0.414-0.018-0.568-0.047c-0.153-0.029-0.28-0.072-0.378-0.127c-0.099-0.057-0.176-0.127-0.229-0.213
			c-0.053-0.085-0.091-0.185-0.114-0.298c-0.024-0.113-0.036-0.242-0.039-0.385s-0.003-0.301,0-0.474
			c0.001-0.175,0.005-0.334,0.011-0.476c0.005-0.144,0.021-0.271,0.047-0.384s0.066-0.213,0.121-0.296
			c0.056-0.083,0.133-0.152,0.233-0.207c0.101-0.054,0.228-0.095,0.382-0.121s0.344-0.037,0.568-0.034L92.632,5.775z M92.602,8.532
			c0.162,0.001,0.299-0.001,0.41-0.009c0.112-0.009,0.205-0.025,0.277-0.056c0.074-0.029,0.13-0.069,0.17-0.123
			c0.041-0.055,0.07-0.129,0.09-0.218c0.018-0.092,0.028-0.202,0.035-0.334c0.004-0.133,0.007-0.291,0.009-0.474
			c0.002-0.184,0.003-0.342,0.001-0.475c-0.003-0.132-0.012-0.243-0.028-0.334c-0.017-0.091-0.045-0.164-0.084-0.22
			c-0.039-0.055-0.094-0.097-0.167-0.127c-0.07-0.031-0.162-0.05-0.273-0.062c-0.112-0.01-0.25-0.018-0.413-0.02L91.52,6.069
			c-0.163-0.003-0.3,0.001-0.412,0.01c-0.112,0.009-0.205,0.027-0.278,0.056c-0.072,0.029-0.129,0.07-0.171,0.124
			c-0.039,0.056-0.067,0.127-0.087,0.218c-0.019,0.09-0.031,0.202-0.033,0.333c-0.006,0.132-0.008,0.292-0.01,0.476
			c-0.002,0.183-0.002,0.341-0.001,0.475c0.001,0.131,0.011,0.243,0.029,0.333c0.016,0.091,0.043,0.166,0.083,0.221
			c0.037,0.055,0.094,0.095,0.165,0.127c0.072,0.031,0.164,0.051,0.276,0.062c0.112,0.01,0.25,0.016,0.413,0.018L92.602,8.532z"/>
		<path fill="#41D305" d="M92.596,9.076l-1.108-0.012c-0.24-0.003-0.44-0.019-0.609-0.052c-0.176-0.033-0.327-0.085-0.449-0.153
			c-0.136-0.078-0.24-0.178-0.313-0.295c-0.067-0.107-0.117-0.233-0.146-0.375c-0.027-0.126-0.042-0.271-0.045-0.428
			c-0.002-0.146-0.002-0.306-0.001-0.482c0.002-0.177,0.007-0.337,0.011-0.482c0.008-0.159,0.023-0.3,0.054-0.428
			c0.032-0.141,0.084-0.266,0.155-0.374c0.075-0.115,0.184-0.21,0.317-0.284c0.123-0.066,0.272-0.115,0.455-0.146
			c0.168-0.029,0.367-0.042,0.609-0.039l1.108,0.011c0.242,0.003,0.441,0.02,0.61,0.053c0.181,0.035,0.328,0.086,0.451,0.156
			c0.131,0.076,0.236,0.173,0.311,0.291c0.066,0.109,0.115,0.235,0.146,0.375c0.026,0.13,0.041,0.271,0.044,0.43
			c0.003,0.146,0.004,0.306,0.003,0.483C94.194,7.5,94.19,7.661,94.186,7.806c-0.007,0.158-0.025,0.301-0.055,0.428
			c-0.032,0.141-0.084,0.265-0.152,0.372c-0.076,0.115-0.184,0.212-0.318,0.286c-0.126,0.066-0.278,0.115-0.456,0.145
			C93.037,9.066,92.837,9.078,92.596,9.076z M91.519,6.305c-0.156-0.002-0.288,0.001-0.395,0.009
			c-0.088,0.007-0.159,0.021-0.209,0.04c-0.029,0.012-0.053,0.027-0.066,0.045c-0.018,0.025-0.034,0.069-0.046,0.125
			c-0.017,0.078-0.025,0.175-0.029,0.292c-0.004,0.132-0.007,0.288-0.009,0.471c-0.002,0.181-0.001,0.338,0,0.467
			c0.002,0.118,0.01,0.217,0.023,0.295c0.015,0.071,0.03,0.109,0.045,0.13c0.012,0.016,0.033,0.031,0.064,0.043
			c0.048,0.021,0.117,0.036,0.207,0.044c0.105,0.01,0.238,0.015,0.392,0.017l1.108,0.012c0.151,0.002,0.283,0,0.391-0.008
			c0.089-0.007,0.157-0.021,0.206-0.04c0.033-0.014,0.056-0.028,0.069-0.046c0.012-0.017,0.03-0.055,0.046-0.125
			c0.016-0.075,0.026-0.175,0.031-0.294c0.004-0.13,0.007-0.285,0.01-0.467c0.001-0.183,0.002-0.338,0-0.47
			c-0.002-0.118-0.01-0.216-0.024-0.293c-0.012-0.056-0.026-0.101-0.046-0.128c-0.012-0.017-0.033-0.031-0.062-0.044
			c-0.05-0.021-0.119-0.036-0.207-0.044c-0.104-0.011-0.237-0.017-0.393-0.018L91.519,6.305z"/>
	</g>
	<g>
		<path fill="#41D305" d="M100.132,8.859c-0.185-0.002-0.332-0.021-0.444-0.055c-0.111-0.034-0.197-0.089-0.258-0.166
			c-0.061-0.079-0.102-0.178-0.12-0.305c-0.019-0.125-0.026-0.28-0.024-0.464l0.002-0.122l0.366,0.005l-0.001,0.122
			c-0.003,0.151,0.006,0.271,0.021,0.361c0.015,0.089,0.041,0.156,0.079,0.205c0.039,0.048,0.089,0.077,0.151,0.092
			c0.062,0.014,0.14,0.021,0.23,0.021l0.858,0.009c0.122,0.001,0.226-0.008,0.304-0.029c0.079-0.021,0.142-0.055,0.189-0.1
			c0.046-0.045,0.078-0.103,0.097-0.173c0.02-0.071,0.028-0.153,0.029-0.248l0.022-2.079l0.369,0.004l-0.024,2.085
			c-0.001,0.153-0.02,0.284-0.054,0.392c-0.034,0.108-0.09,0.197-0.166,0.264c-0.078,0.068-0.18,0.118-0.306,0.149
			s-0.28,0.044-0.464,0.043L100.132,8.859z"/>
		<path fill="#41D305" d="M100.987,9.105l-0.858-0.009c-0.208-0.002-0.376-0.024-0.511-0.065c-0.156-0.047-0.283-0.132-0.374-0.246
			c-0.087-0.111-0.143-0.25-0.168-0.415c-0.021-0.141-0.029-0.305-0.028-0.503l0.004-0.358l0.84,0.009l-0.004,0.358
			c-0.002,0.137,0.006,0.244,0.019,0.317c0.012,0.074,0.029,0.096,0.029,0.098c0.006,0.004,0.008,0.007,0.021,0.011
			c0.044,0.009,0.106,0.015,0.181,0.016l0.859,0.009c0.124,0.002,0.199-0.011,0.24-0.021c0.038-0.009,0.067-0.025,0.085-0.042
			c0.015-0.013,0.025-0.036,0.033-0.065c0.015-0.05,0.021-0.113,0.022-0.188l0.024-2.315l0.841,0.009l-0.025,2.32
			c-0.002,0.176-0.023,0.331-0.066,0.462c-0.048,0.147-0.126,0.273-0.236,0.369c-0.104,0.094-0.241,0.161-0.404,0.2
			C101.364,9.091,101.192,9.107,100.987,9.105z"/>
	</g>
	<g>
		<path fill="#41D305" d="M107.519,8.94l0.032-2.944l2.943,0.032l-0.004,0.308l-2.574-0.027l-0.011,0.98l2.452,0.027l-0.003,0.305
			l-2.453-0.026l-0.011,1.042l2.575,0.028l-0.004,0.307L107.519,8.94z"/>
		<polygon fill="#41D305" points="110.696,9.21 107.281,9.173 107.318,5.758 110.733,5.795 110.726,6.575 108.149,6.547 
			108.145,7.054 110.596,7.081 110.588,7.861 108.136,7.833 108.13,8.403 110.705,8.431 		"/>
	</g>
	<g>
		<path fill="#41D305" d="M118.876,7.04c0.001-0.153-0.013-0.274-0.046-0.366c-0.032-0.089-0.087-0.158-0.162-0.203
			c-0.076-0.048-0.177-0.078-0.302-0.093c-0.124-0.014-0.277-0.022-0.462-0.024l-0.861-0.009c-0.163-0.002-0.3,0.002-0.411,0.011
			c-0.112,0.009-0.206,0.026-0.278,0.055c-0.072,0.029-0.129,0.07-0.171,0.124c-0.04,0.056-0.069,0.128-0.086,0.218
			c-0.02,0.09-0.032,0.202-0.035,0.334c-0.005,0.131-0.008,0.291-0.009,0.475c-0.003,0.183-0.003,0.342-0.001,0.475
			c0.001,0.131,0.011,0.242,0.028,0.333c0.016,0.091,0.044,0.165,0.081,0.221c0.04,0.055,0.096,0.096,0.168,0.126
			c0.073,0.031,0.164,0.051,0.276,0.062c0.11,0.01,0.249,0.017,0.412,0.018l0.86,0.009c0.143,0.002,0.266,0,0.37-0.007
			c0.103-0.006,0.191-0.019,0.264-0.039c0.074-0.021,0.133-0.048,0.179-0.083c0.045-0.035,0.08-0.08,0.105-0.134
			c0.025-0.053,0.042-0.118,0.053-0.193c0.01-0.077,0.016-0.165,0.016-0.269l0.368,0.004c-0.001,0.123-0.01,0.234-0.027,0.333
			c-0.016,0.098-0.043,0.186-0.084,0.264c-0.041,0.075-0.092,0.142-0.158,0.198c-0.065,0.056-0.149,0.102-0.249,0.137
			c-0.1,0.035-0.219,0.061-0.355,0.077c-0.139,0.016-0.3,0.021-0.483,0.019l-0.861-0.009c-0.225-0.002-0.413-0.018-0.566-0.047
			c-0.153-0.029-0.28-0.071-0.38-0.127c-0.099-0.058-0.175-0.127-0.229-0.213c-0.053-0.085-0.092-0.185-0.115-0.299
			c-0.022-0.112-0.036-0.242-0.039-0.384c-0.001-0.144-0.002-0.302,0-0.474c0.003-0.175,0.005-0.334,0.01-0.476
			c0.007-0.144,0.022-0.271,0.048-0.384c0.026-0.113,0.066-0.212,0.121-0.297c0.057-0.083,0.133-0.152,0.234-0.206
			c0.1-0.055,0.227-0.096,0.382-0.121c0.154-0.024,0.343-0.037,0.567-0.034l0.861,0.01c0.184,0.002,0.344,0.012,0.482,0.031
			c0.138,0.019,0.255,0.044,0.354,0.082c0.099,0.036,0.182,0.081,0.245,0.135c0.066,0.054,0.116,0.117,0.156,0.192
			c0.037,0.071,0.063,0.156,0.077,0.247c0.016,0.093,0.021,0.196,0.02,0.307L118.876,7.04z"/>
		<path fill="#41D305" d="M117.872,9.349l-0.86-0.009c-0.238-0.003-0.443-0.021-0.609-0.053c-0.175-0.032-0.327-0.085-0.45-0.153
			c-0.134-0.077-0.239-0.176-0.312-0.294c-0.067-0.107-0.118-0.233-0.146-0.375c-0.028-0.129-0.042-0.274-0.045-0.431
			c-0.001-0.144-0.003-0.304-0.001-0.479c0.002-0.178,0.007-0.337,0.012-0.482c0.006-0.155,0.023-0.299,0.053-0.428
			c0.033-0.141,0.085-0.268,0.155-0.374c0.078-0.116,0.184-0.212,0.318-0.284c0.123-0.067,0.272-0.115,0.455-0.146
			c0.167-0.029,0.367-0.042,0.608-0.04l0.862,0.01c0.19,0.002,0.362,0.013,0.512,0.035c0.152,0.021,0.289,0.052,0.403,0.094
			c0.126,0.045,0.231,0.104,0.317,0.177c0.087,0.072,0.158,0.162,0.211,0.263c0.049,0.094,0.084,0.2,0.104,0.319
			c0.016,0.107,0.022,0.223,0.021,0.346l-0.002,0.237l-0.84-0.009l0.003-0.238c0.002-0.154-0.018-0.238-0.033-0.28
			c-0.019-0.052-0.043-0.071-0.063-0.084c-0.032-0.019-0.093-0.046-0.205-0.058c-0.113-0.014-0.26-0.021-0.437-0.023l-0.861-0.01
			c-0.154-0.001-0.286,0.001-0.393,0.01c-0.088,0.007-0.159,0.021-0.209,0.04c-0.03,0.013-0.052,0.027-0.066,0.045
			c-0.019,0.026-0.034,0.071-0.047,0.126c-0.016,0.075-0.025,0.174-0.028,0.292c-0.004,0.13-0.008,0.287-0.01,0.471
			c-0.002,0.181-0.002,0.337,0,0.467c0,0.118,0.01,0.219,0.023,0.294c0.013,0.072,0.031,0.111,0.047,0.129
			c0.003,0.005,0.017,0.025,0.062,0.044c0.049,0.021,0.119,0.035,0.209,0.044c0.105,0.01,0.239,0.015,0.391,0.017l0.861,0.009
			c0.143,0.001,0.258,0,0.351-0.006c0.089-0.005,0.161-0.016,0.217-0.031c0.055-0.016,0.082-0.03,0.097-0.041
			c0.016-0.012,0.027-0.028,0.038-0.049c0.009-0.02,0.022-0.058,0.031-0.125c0.008-0.065,0.014-0.145,0.015-0.238l0.002-0.236
			l0.84,0.009l-0.002,0.236c-0.002,0.134-0.012,0.257-0.03,0.367c-0.019,0.125-0.056,0.237-0.107,0.335
			c-0.055,0.105-0.127,0.196-0.216,0.271c-0.087,0.072-0.195,0.134-0.322,0.178c-0.116,0.042-0.249,0.07-0.409,0.089
			C118.237,9.345,118.07,9.351,117.872,9.349z"/>
	</g>
	<g>
		<path fill="#41D305" d="M127.893,6.216l-0.004,0.308l-1.47-0.016l-0.029,2.636l-0.367-0.004l0.028-2.636l-1.471-0.015l0.002-0.309
			L127.893,6.216z"/>
		<polygon fill="#41D305" points="126.622,9.382 125.783,9.374 125.812,6.738 124.339,6.722 124.348,5.942 128.132,5.983 
			128.123,6.762 126.651,6.747 		"/>
	</g>
</g>
<path fill="#41D305" d="M24.128,22.862c-1.631,0-4.114-0.146-4.114-0.146c-0.261-0.015-0.349-0.2-0.194-0.411
	c0,0,1.541-2.122,2.658-3.451c0.552-0.654,1.333-1.519,1.333-1.519c0.175-0.194,0.46-0.194,0.636,0c0,0,0.778,0.865,1.331,1.519
	c1.119,1.329,2.66,3.451,2.66,3.451c0.153,0.211,0.065,0.396-0.194,0.411C28.243,22.716,25.758,22.862,24.128,22.862z"/>
<path fill="#6B6B6B" d="M48.257,20.941c-0.01-2.363-5.732-4.393-13.979-5.317c-0.493-0.021-0.75,0.343-0.758,0.692
	c-0.014,0.279,0.18,0.622,0.529,0.679c0.065,0.011,0.122,0.024,0.195,0.036c6.645,0.694,11.168,2.057,11.176,3.63
	c0.007,1.534-4.277,2.877-10.644,3.603c-1.664-2.718-3.693-5.635-6.012-8.581c-1.093-1.39-2.195-2.712-3.29-3.963
	c5.646-6.279,10.621-10.094,12.06-8.968c1.112,0.871-0.155,4.552-2.996,9.384c-0.089,0.156-0.162,0.614,0.189,0.852
	c0.332,0.225,0.78,0.101,0.976-0.214c0.027-0.048,0.079-0.123,0.107-0.171c3.502-6.12,4.918-10.94,3.237-12.255
	c-2.054-1.607-8.089,2.492-14.649,9.58V9.925c-0.091,0.097-0.181,0.192-0.271,0.291c-0.09-0.099-0.181-0.194-0.27-0.291v0.002
	C17.298,2.839,11.262-1.26,9.208,0.347c-1.681,1.315-0.264,6.136,3.238,12.255c0.027,0.048,0.079,0.123,0.107,0.171
	c0.195,0.315,0.643,0.439,0.976,0.214c0.352-0.238,0.278-0.696,0.188-0.852c-2.841-4.832-4.108-8.514-2.996-9.384
	c1.438-1.125,6.414,2.689,12.06,8.968c-1.094,1.25-2.197,2.573-3.289,3.963c-2.318,2.945-4.349,5.863-6.012,8.581
	c-6.366-0.726-10.651-2.069-10.644-3.603c0.007-1.573,4.53-2.936,11.175-3.63c0.074-0.011,0.13-0.024,0.195-0.036
	c0.351-0.057,0.543-0.4,0.528-0.679c-0.006-0.35-0.264-0.714-0.757-0.692C5.731,16.548,0.01,18.578,0,20.941
	c-0.01,2.214,4.993,4.147,12.391,5.163C8.924,32.183,7.534,36.96,9.208,38.271c1.812,1.417,6.729-1.609,12.367-7.212
	c0.188-0.171,0.305-0.626-0.037-0.959c-0.22-0.214-0.612-0.258-0.884-0.059c-0.106,0.078-0.207,0.178-0.281,0.248
	c-4.398,4.413-7.999,6.859-9.187,5.93c-1.155-0.901,0.251-4.769,3.318-9.856c2.87,0.309,6.031,0.483,9.354,0.497v0
	c0.047,0,0.092,0,0.139,0c0.036,0,0.071,0.001,0.107,0.001c0.008,0,0.016,0,0.023,0s0.017,0,0.023,0c0.036,0,0.072,0,0.108-0.001
	c0.046,0,0.092,0,0.139,0v0c3.321-0.013,6.482-0.188,9.353-0.497c3.067,5.088,4.474,8.955,3.318,9.856
	c-1.187,0.929-4.788-1.517-9.186-5.93c-0.074-0.07-0.176-0.17-0.281-0.248c-0.272-0.2-0.664-0.155-0.885,0.059
	c-0.341,0.333-0.225,0.788-0.036,0.959c5.64,5.603,10.555,8.629,12.366,7.212c1.674-1.31,0.284-6.088-3.182-12.167
	C43.263,25.088,48.267,23.155,48.257,20.941z M24.205,24.828c-0.026,0-0.052,0-0.077,0s-0.051,0-0.076,0
	c-2.975-0.004-5.805-0.128-8.374-0.347c1.527-2.368,3.357-4.935,5.416-7.549c0.925-1.174,1.849-2.296,2.765-3.367v0.002
	c0.089-0.105,0.18-0.212,0.27-0.316c0.09,0.104,0.18,0.211,0.271,0.316v-0.002c0.915,1.071,1.84,2.192,2.764,3.367
	c2.06,2.615,3.889,5.182,5.416,7.549C30.01,24.699,27.18,24.824,24.205,24.828z"/>
</svg>
