<?xml version="1.0" encoding="utf-8"?>
<!-- Generator: Adobe Illustrator 16.0.4, SVG Export Plug-In . SVG Version: 6.00 Build 0)  -->
<svg version="1.2" baseProfile="tiny" id="Layer_1" xmlns="http://www.w3.org/2000/svg" xmlns:xlink="http://www.w3.org/1999/xlink"
	 x="0px" y="0px" width="96px" height="110px" viewBox="0 0 96 110" overflow="visible" xml:space="preserve">
<g>
	<g>
		<path fill="#FFFFFF" d="M11.697,109.759H8.325l-0.578-3.848H3.646l-0.579,3.848H0l3.403-21.202h4.892L11.697,109.759z
			 M4.07,103.035h3.22L5.68,92.313L4.07,103.035z"/>
		<path fill="#FFFFFF" d="M16.953,88.558h10.329v3.028h-3.492v18.173h-3.344V91.586h-3.493V88.558z"/>
		<path fill="#FFFFFF" d="M34.299,93.646c0-3.393,1.793-5.33,5.073-5.33c3.282,0,5.074,1.938,5.074,5.33v11.023
			c0,3.394-1.792,5.331-5.074,5.331c-3.28,0-5.073-1.937-5.073-5.331V93.646z M37.641,104.883c0,1.513,0.669,2.089,1.73,2.089
			c1.064,0,1.732-0.576,1.732-2.089V93.434c0-1.515-0.668-2.09-1.732-2.09c-1.062,0-1.73,0.575-1.73,2.09V104.883z"/>
		<path fill="#FFFFFF" d="M59.513,103.61l2.279-15.053h4.647v21.202h-3.159V94.554l-2.31,15.205h-3.159l-2.491-14.993v14.993h-2.916
			V88.558h4.647L59.513,103.61z"/>
		<path fill="#FFFFFF" d="M74.704,88.558h3.34v21.202h-3.34V88.558z"/>
		<path fill="#FFFFFF" d="M96,101.854v2.815c0,3.394-1.701,5.331-4.982,5.331c-3.281,0-4.982-1.937-4.982-5.331V93.646
			c0-3.393,1.701-5.33,4.982-5.33c3.281,0,4.982,1.938,4.982,5.33v2.059h-3.16v-2.271c0-1.515-0.668-2.09-1.732-2.09
			s-1.731,0.575-1.731,2.09v11.449c0,1.513,0.667,2.059,1.731,2.059s1.732-0.546,1.732-2.059v-3.029H96z"/>
	</g>
	<g>
		<g>
			<path fill="#41D305" d="M17.734,79.945l2.431,0.025c0.2,0.002,0.369,0.014,0.507,0.033c0.139,0.02,0.252,0.047,0.342,0.083
				c0.089,0.037,0.158,0.081,0.206,0.135c0.049,0.05,0.083,0.112,0.104,0.182c0.022,0.07,0.034,0.148,0.037,0.236
				c0.003,0.087,0.003,0.182,0.003,0.287c-0.001,0.11-0.006,0.209-0.012,0.303c-0.006,0.092-0.023,0.176-0.05,0.251
				c-0.029,0.075-0.073,0.14-0.133,0.195c-0.062,0.055-0.147,0.102-0.258,0.139c-0.111,0.035-0.251,0.063-0.419,0.081
				c-0.168,0.019-0.378,0.025-0.624,0.022l-1.75-0.018l-0.014,1.276l-0.404-0.004L17.734,79.945z M18.123,81.563l1.748,0.019
				c0.18,0.002,0.331,0,0.454-0.006c0.123-0.004,0.223-0.016,0.304-0.031c0.08-0.016,0.141-0.039,0.186-0.069
				c0.043-0.031,0.077-0.07,0.097-0.121c0.021-0.051,0.034-0.11,0.039-0.181c0.003-0.071,0.007-0.156,0.007-0.253
				c0.001-0.09,0-0.169-0.001-0.235c-0.003-0.066-0.015-0.123-0.036-0.167c-0.019-0.044-0.053-0.08-0.095-0.107
				c-0.043-0.028-0.104-0.048-0.184-0.064c-0.079-0.017-0.182-0.027-0.302-0.03c-0.125-0.008-0.276-0.011-0.455-0.013l-1.749-0.018
				L18.123,81.563z"/>
			<path fill="#41D305" d="M18.361,83.436l-0.923-0.01l0.04-3.742l2.689,0.028c0.206,0.002,0.388,0.014,0.541,0.035
				c0.163,0.021,0.294,0.056,0.403,0.099c0.13,0.055,0.229,0.119,0.302,0.202c0.072,0.075,0.127,0.17,0.16,0.279
				c0.028,0.092,0.044,0.192,0.047,0.304c0.001,0.09,0.001,0.19,0.001,0.298c-0.001,0.112-0.004,0.219-0.01,0.315
				c-0.008,0.116-0.031,0.224-0.065,0.324c-0.045,0.115-0.113,0.214-0.202,0.296c-0.086,0.081-0.204,0.145-0.35,0.193
				c-0.129,0.044-0.292,0.075-0.476,0.095c-0.178,0.018-0.391,0.025-0.654,0.022l-1.489-0.015L18.361,83.436z M18.385,81.305
				l1.49,0.017c0.165,0.002,0.313,0.001,0.439-0.004c0.11-0.004,0.197-0.014,0.264-0.026c0.066-0.014,0.086-0.027,0.086-0.027
				c0.015-0.024,0.024-0.054,0.027-0.105c0.005-0.07,0.006-0.149,0.007-0.241c0.002-0.084,0.001-0.158-0.001-0.218
				c-0.001-0.047-0.009-0.068-0.013-0.074c0.001,0.005-0.024-0.01-0.092-0.024c-0.067-0.013-0.156-0.022-0.263-0.027
				c-0.121-0.003-0.27-0.008-0.446-0.01l-1.489-0.016L18.385,81.305z"/>
		</g>
		<g>
			<path fill="#41D305" d="M30.896,83.312l-0.403-0.005l0.007-0.604c0-0.099,0-0.184-0.003-0.254
				c-0.001-0.069-0.013-0.13-0.033-0.182c-0.02-0.049-0.052-0.091-0.094-0.123c-0.042-0.031-0.105-0.056-0.186-0.073
				c-0.079-0.018-0.181-0.031-0.303-0.041c-0.123-0.005-0.273-0.011-0.452-0.013L27.61,82l-0.013,1.277l-0.404-0.005l0.034-3.224
				l2.29,0.023c0.246,0.003,0.455,0.015,0.624,0.034c0.168,0.021,0.307,0.048,0.417,0.083c0.11,0.038,0.194,0.08,0.254,0.134
				c0.06,0.052,0.103,0.114,0.13,0.184c0.026,0.07,0.04,0.149,0.045,0.236c0.003,0.087,0.005,0.182,0.004,0.287
				c-0.001,0.135-0.013,0.254-0.032,0.354c-0.021,0.102-0.054,0.188-0.1,0.258c-0.044,0.07-0.104,0.128-0.18,0.17
				c-0.075,0.041-0.168,0.069-0.282,0.084c0.113,0.02,0.202,0.05,0.269,0.091c0.067,0.043,0.119,0.1,0.155,0.167
				c0.035,0.068,0.059,0.147,0.068,0.24c0.011,0.093,0.016,0.197,0.015,0.317L30.896,83.312z M27.616,81.666l1.882,0.02
				c0.179,0.002,0.331,0,0.454-0.006c0.124-0.004,0.225-0.015,0.304-0.029c0.082-0.018,0.142-0.041,0.187-0.071
				c0.043-0.03,0.078-0.07,0.098-0.121c0.02-0.05,0.033-0.11,0.038-0.181c0.003-0.07,0.007-0.154,0.007-0.253
				c0.002-0.089,0-0.17,0-0.234c-0.004-0.066-0.015-0.122-0.036-0.168c-0.02-0.044-0.052-0.08-0.094-0.106
				c-0.044-0.027-0.105-0.048-0.186-0.064c-0.08-0.017-0.179-0.027-0.303-0.031c-0.123-0.007-0.274-0.01-0.454-0.013l-1.883-0.02
				L27.616,81.666z"/>
			<path fill="#41D305" d="M31.153,83.574l-0.923-0.01l0.01-0.862c0-0.095,0-0.174-0.002-0.243
				c-0.003-0.053-0.012-0.085-0.016-0.098c-0.007-0.007-0.027-0.021-0.094-0.036c-0.069-0.015-0.16-0.028-0.261-0.033
				c-0.133-0.007-0.281-0.013-0.442-0.013l-1.557-0.018l-0.014,1.276l-0.924-0.01l0.041-3.741l2.548,0.026
				c0.247,0.004,0.465,0.016,0.651,0.036c0.188,0.022,0.343,0.054,0.471,0.095c0.148,0.05,0.262,0.111,0.345,0.188
				c0.088,0.077,0.157,0.172,0.198,0.282c0.035,0.096,0.056,0.201,0.062,0.315c0.004,0.091,0.006,0.194,0.004,0.303
				c-0.001,0.146-0.014,0.281-0.037,0.399c-0.026,0.134-0.071,0.251-0.135,0.351c-0.033,0.046-0.068,0.091-0.108,0.131
				c0.03,0.036,0.057,0.076,0.079,0.117c0.051,0.099,0.083,0.21,0.099,0.333c0.012,0.103,0.016,0.216,0.016,0.349L31.153,83.574z
				 M27.878,81.409l1.622,0.017c0.168,0.001,0.315,0.001,0.441-0.004c0.109-0.005,0.199-0.013,0.264-0.028
				c0.067-0.012,0.087-0.025,0.087-0.025c0.014-0.024,0.022-0.055,0.026-0.106c0.004-0.068,0.006-0.148,0.007-0.24
				c0.001-0.085,0-0.159-0.003-0.22c-0.001-0.046-0.01-0.067-0.012-0.073c0.001,0.002-0.023-0.009-0.093-0.024
				c-0.068-0.013-0.156-0.022-0.263-0.028c-0.122-0.003-0.27-0.008-0.447-0.009l-1.622-0.018L27.878,81.409z"/>
		</g>
		<g>
			<path fill="#41D305" d="M39.553,80.115c0.247,0.003,0.454,0.019,0.623,0.052c0.168,0.031,0.308,0.079,0.416,0.141
				c0.109,0.062,0.193,0.14,0.25,0.233c0.059,0.092,0.101,0.202,0.126,0.327c0.027,0.125,0.041,0.265,0.044,0.421
				c0.003,0.157,0.004,0.331,0.001,0.522c-0.002,0.188-0.006,0.362-0.013,0.52c-0.006,0.156-0.024,0.297-0.052,0.42
				c-0.029,0.125-0.073,0.233-0.133,0.325c-0.061,0.092-0.146,0.167-0.256,0.228c-0.109,0.058-0.25,0.103-0.419,0.13
				c-0.169,0.03-0.377,0.041-0.625,0.039l-1.217-0.013c-0.246-0.002-0.455-0.02-0.625-0.052c-0.169-0.032-0.307-0.08-0.416-0.14
				c-0.107-0.061-0.192-0.138-0.251-0.233c-0.059-0.093-0.101-0.202-0.126-0.327s-0.04-0.266-0.043-0.422s-0.003-0.33,0-0.519
				c0.002-0.191,0.005-0.366,0.012-0.521c0.006-0.157,0.022-0.297,0.052-0.421c0.028-0.124,0.072-0.233,0.133-0.325
				c0.061-0.091,0.146-0.167,0.256-0.227c0.11-0.059,0.25-0.104,0.42-0.132s0.377-0.041,0.624-0.038L39.553,80.115z M39.52,83.136
				c0.178,0.002,0.328-0.001,0.452-0.01c0.123-0.009,0.224-0.028,0.304-0.061c0.081-0.032,0.143-0.076,0.187-0.134
				c0.043-0.061,0.076-0.142,0.098-0.24c0.02-0.101,0.032-0.221,0.039-0.366c0.006-0.146,0.008-0.318,0.01-0.52
				c0.002-0.202,0.004-0.375,0-0.521c-0.002-0.144-0.013-0.267-0.03-0.366c-0.02-0.1-0.049-0.179-0.092-0.241
				c-0.043-0.061-0.104-0.106-0.184-0.14c-0.078-0.033-0.179-0.055-0.301-0.067c-0.123-0.01-0.273-0.019-0.454-0.021l-1.217-0.013
				c-0.18-0.002-0.331,0.002-0.454,0.011c-0.124,0.01-0.225,0.031-0.305,0.062c-0.08,0.031-0.143,0.076-0.187,0.136
				c-0.043,0.061-0.075,0.139-0.096,0.239c-0.021,0.099-0.034,0.221-0.038,0.366c-0.006,0.144-0.009,0.319-0.01,0.52
				c-0.002,0.201-0.002,0.375,0,0.52c0.001,0.144,0.012,0.267,0.031,0.365c0.018,0.1,0.047,0.182,0.092,0.242
				c0.041,0.061,0.103,0.104,0.182,0.139c0.08,0.033,0.179,0.056,0.303,0.068c0.123,0.011,0.274,0.017,0.455,0.019L39.52,83.136z"/>
			<path fill="#41D305" d="M39.514,83.731l-1.217-0.014c-0.265-0.003-0.484-0.02-0.67-0.057c-0.193-0.035-0.36-0.093-0.494-0.167
				c-0.149-0.086-0.264-0.195-0.345-0.323c-0.073-0.117-0.128-0.256-0.16-0.411c-0.03-0.139-0.046-0.298-0.048-0.47
				c-0.002-0.16-0.002-0.335-0.001-0.528c0.003-0.193,0.008-0.369,0.012-0.528c0.008-0.174,0.025-0.329,0.059-0.468
				c0.036-0.155,0.093-0.292,0.171-0.41c0.083-0.126,0.201-0.23,0.349-0.312c0.135-0.073,0.3-0.126,0.5-0.159
				c0.185-0.032,0.404-0.046,0.671-0.042l1.217,0.012c0.266,0.003,0.483,0.022,0.67,0.058c0.197,0.039,0.361,0.095,0.496,0.171
				c0.145,0.083,0.26,0.19,0.342,0.319c0.072,0.119,0.126,0.258,0.159,0.41c0.029,0.143,0.045,0.297,0.049,0.472
				c0.003,0.159,0.004,0.335,0.001,0.529c-0.002,0.191-0.007,0.368-0.014,0.526c-0.006,0.173-0.027,0.331-0.059,0.47
				c-0.037,0.155-0.092,0.29-0.168,0.408c-0.083,0.126-0.201,0.233-0.35,0.313c-0.139,0.073-0.305,0.126-0.5,0.159
				C39.998,83.721,39.779,83.733,39.514,83.731z M38.33,80.695c-0.171-0.002-0.316,0.001-0.433,0.01
				c-0.097,0.008-0.175,0.023-0.23,0.044c-0.031,0.014-0.056,0.029-0.072,0.049c-0.019,0.027-0.039,0.075-0.052,0.138
				c-0.017,0.084-0.027,0.191-0.03,0.319c-0.004,0.145-0.009,0.316-0.011,0.515c-0.002,0.2-0.001,0.371,0,0.513
				c0.002,0.13,0.012,0.238,0.027,0.323c0.014,0.078,0.033,0.12,0.049,0.143c0.013,0.017,0.037,0.034,0.07,0.047
				c0.053,0.022,0.129,0.039,0.228,0.048c0.117,0.012,0.261,0.017,0.43,0.019l1.218,0.013c0.166,0.002,0.312,0,0.43-0.008
				c0.097-0.008,0.174-0.022,0.226-0.043c0.037-0.015,0.061-0.031,0.077-0.05c0.013-0.019,0.034-0.06,0.051-0.138
				c0.017-0.082,0.029-0.191,0.033-0.322c0.005-0.142,0.008-0.312,0.012-0.511c0.001-0.2,0.001-0.37,0-0.515
				c-0.003-0.129-0.012-0.237-0.027-0.32c-0.012-0.062-0.029-0.111-0.05-0.142c-0.013-0.019-0.037-0.035-0.069-0.049
				c-0.053-0.023-0.13-0.04-0.228-0.048c-0.115-0.012-0.261-0.019-0.432-0.02L38.33,80.695z"/>
		</g>
		<g>
			<path fill="#41D305" d="M47.794,83.494c-0.202-0.002-0.364-0.022-0.489-0.061c-0.121-0.037-0.216-0.098-0.282-0.182
				c-0.067-0.087-0.112-0.196-0.133-0.334c-0.02-0.139-0.029-0.307-0.026-0.509l0.002-0.133l0.401,0.005l0,0.134
				c-0.003,0.166,0.006,0.296,0.023,0.396c0.017,0.098,0.045,0.171,0.089,0.224c0.042,0.053,0.097,0.085,0.166,0.101
				c0.067,0.015,0.153,0.022,0.253,0.024l0.942,0.009c0.134,0.002,0.248-0.009,0.334-0.031c0.087-0.023,0.155-0.06,0.207-0.11
				c0.051-0.049,0.087-0.112,0.108-0.189c0.021-0.077,0.029-0.167,0.031-0.272l0.024-2.277l0.407,0.004l-0.026,2.284
				c0,0.168-0.021,0.312-0.06,0.43c-0.039,0.118-0.099,0.216-0.182,0.289c-0.086,0.075-0.198,0.129-0.336,0.163
				c-0.139,0.034-0.308,0.049-0.51,0.048L47.794,83.494z"/>
			<path fill="#41D305" d="M48.734,83.763l-0.942-0.01c-0.229-0.002-0.413-0.026-0.562-0.071c-0.171-0.053-0.312-0.146-0.411-0.271
				c-0.095-0.122-0.158-0.273-0.185-0.453c-0.022-0.155-0.033-0.334-0.031-0.552l0.004-0.393l0.923,0.01l-0.004,0.392
				c-0.001,0.15,0.007,0.268,0.02,0.348c0.014,0.081,0.033,0.105,0.034,0.107c0.005,0.004,0.007,0.008,0.021,0.012
				c0.048,0.01,0.117,0.016,0.199,0.017l0.944,0.01c0.136,0.002,0.219-0.013,0.265-0.024c0.042-0.01,0.073-0.026,0.092-0.045
				c0.016-0.015,0.028-0.039,0.037-0.072c0.016-0.054,0.024-0.124,0.024-0.207l0.027-2.536l0.925,0.011l-0.029,2.542
				c-0.001,0.192-0.026,0.363-0.073,0.506c-0.051,0.162-0.138,0.298-0.259,0.404c-0.115,0.103-0.265,0.177-0.444,0.22
				C49.148,83.748,48.959,83.766,48.734,83.763z"/>
		</g>
		<g>
			<path fill="#41D305" d="M55.912,83.582l0.034-3.225l3.235,0.035l-0.003,0.337l-2.829-0.031l-0.012,1.074l2.694,0.029
				l-0.003,0.335l-2.694-0.03l-0.012,1.143l2.829,0.03l-0.003,0.336L55.912,83.582z"/>
			<polygon fill="#41D305" points="59.403,83.878 55.651,83.838 55.692,80.097 59.444,80.136 59.436,80.991 56.605,80.96 
				56.599,81.515 59.293,81.545 59.285,82.4 56.59,82.371 56.583,82.995 59.413,83.024 			"/>
		</g>
		<g>
			<path fill="#41D305" d="M68.391,81.5c0.002-0.168-0.014-0.301-0.049-0.4c-0.037-0.097-0.096-0.172-0.178-0.223
				c-0.084-0.054-0.194-0.086-0.331-0.103c-0.138-0.015-0.306-0.024-0.509-0.026l-0.946-0.01c-0.179-0.003-0.33,0.002-0.453,0.012
				c-0.124,0.009-0.226,0.028-0.306,0.06c-0.079,0.031-0.142,0.076-0.188,0.136c-0.042,0.062-0.075,0.14-0.094,0.239
				c-0.021,0.099-0.035,0.221-0.039,0.366c-0.005,0.144-0.008,0.318-0.009,0.52c-0.003,0.201-0.004,0.375-0.001,0.521
				c0.001,0.144,0.013,0.265,0.031,0.365c0.017,0.099,0.047,0.181,0.089,0.242c0.044,0.06,0.106,0.104,0.185,0.139
				c0.079,0.034,0.181,0.056,0.303,0.068c0.122,0.011,0.273,0.018,0.452,0.019l0.947,0.011c0.156,0.002,0.292,0,0.406-0.008
				c0.113-0.007,0.212-0.021,0.292-0.043c0.081-0.022,0.145-0.052,0.195-0.09c0.049-0.038,0.087-0.087,0.117-0.146
				c0.028-0.06,0.046-0.131,0.057-0.212c0.01-0.084,0.018-0.181,0.018-0.294l0.404,0.005c-0.001,0.135-0.01,0.257-0.029,0.364
				c-0.018,0.107-0.047,0.204-0.092,0.29c-0.045,0.082-0.101,0.155-0.174,0.216c-0.072,0.061-0.164,0.111-0.274,0.15
				c-0.109,0.038-0.24,0.067-0.39,0.084c-0.153,0.017-0.331,0.022-0.531,0.02l-0.948-0.009c-0.246-0.003-0.453-0.02-0.622-0.052
				c-0.169-0.032-0.308-0.079-0.418-0.14c-0.109-0.062-0.192-0.139-0.25-0.233c-0.059-0.093-0.102-0.202-0.128-0.326
				c-0.025-0.124-0.041-0.266-0.043-0.422c0-0.156-0.002-0.33,0-0.52c0.002-0.191,0.006-0.365,0.012-0.521
				c0.006-0.157,0.023-0.296,0.052-0.42c0.029-0.124,0.073-0.233,0.133-0.325c0.062-0.091,0.147-0.166,0.256-0.227
				c0.111-0.059,0.251-0.104,0.421-0.132c0.169-0.028,0.375-0.04,0.623-0.037l0.947,0.01c0.202,0.003,0.378,0.013,0.529,0.034
				c0.152,0.021,0.281,0.049,0.39,0.089c0.109,0.04,0.199,0.089,0.271,0.149c0.071,0.06,0.126,0.128,0.169,0.21
				c0.042,0.078,0.07,0.171,0.086,0.271c0.018,0.1,0.023,0.214,0.022,0.336L68.391,81.5z"/>
			<path fill="#41D305" d="M67.288,84.03l-0.945-0.01c-0.261-0.003-0.488-0.022-0.67-0.057c-0.192-0.036-0.358-0.094-0.494-0.167
				c-0.148-0.084-0.264-0.193-0.344-0.322c-0.074-0.118-0.13-0.256-0.161-0.412c-0.031-0.141-0.046-0.3-0.05-0.472
				c0-0.158-0.003-0.333,0-0.525c0.002-0.195,0.007-0.37,0.013-0.528c0.006-0.17,0.024-0.328,0.057-0.469
				c0.037-0.154,0.095-0.293,0.171-0.409c0.086-0.127,0.203-0.232,0.35-0.312c0.136-0.073,0.3-0.125,0.5-0.16
				c0.184-0.032,0.404-0.045,0.668-0.043l0.947,0.011c0.21,0.002,0.399,0.015,0.562,0.038c0.167,0.023,0.318,0.057,0.444,0.104
				c0.139,0.05,0.254,0.115,0.349,0.195c0.095,0.078,0.173,0.175,0.231,0.287c0.054,0.103,0.093,0.22,0.113,0.35
				c0.019,0.118,0.026,0.245,0.023,0.379l-0.001,0.259l-0.923-0.01l0.004-0.26c0.001-0.168-0.021-0.26-0.036-0.307
				c-0.021-0.056-0.049-0.079-0.071-0.092c-0.036-0.021-0.102-0.051-0.225-0.063c-0.125-0.015-0.286-0.023-0.479-0.025l-0.946-0.011
				c-0.17-0.002-0.314,0.002-0.43,0.011c-0.098,0.008-0.176,0.021-0.23,0.043c-0.035,0.014-0.058,0.029-0.073,0.05
				c-0.02,0.028-0.038,0.077-0.051,0.138c-0.018,0.082-0.028,0.191-0.032,0.32c-0.004,0.143-0.008,0.314-0.01,0.516
				c-0.003,0.198-0.003,0.369-0.001,0.511c0.001,0.13,0.011,0.239,0.027,0.323c0.014,0.079,0.033,0.122,0.05,0.142
				c0.002,0.006,0.017,0.028,0.068,0.048c0.054,0.022,0.13,0.039,0.229,0.049c0.117,0.011,0.263,0.017,0.43,0.019l0.946,0.01
				c0.157,0.002,0.284-0.001,0.385-0.007c0.098-0.005,0.178-0.018,0.238-0.034c0.06-0.017,0.091-0.033,0.106-0.045
				c0.018-0.013,0.031-0.03,0.042-0.054c0.011-0.022,0.025-0.062,0.035-0.137c0.008-0.072,0.015-0.159,0.016-0.262l0.002-0.258
				l0.923,0.011l-0.003,0.258c-0.001,0.146-0.012,0.283-0.032,0.402c-0.021,0.138-0.062,0.26-0.118,0.368
				c-0.061,0.114-0.14,0.214-0.237,0.295c-0.096,0.08-0.215,0.147-0.355,0.196c-0.128,0.045-0.274,0.077-0.449,0.098
				C67.69,84.025,67.507,84.032,67.288,84.03z"/>
		</g>
		<g>
			<path fill="#41D305" d="M78.301,80.598l-0.005,0.337l-1.617-0.017l-0.031,2.887l-0.404-0.004l0.032-2.889l-1.617-0.016
				l0.003-0.338L78.301,80.598z"/>
			<polygon fill="#41D305" points="76.903,84.066 75.981,84.057 76.014,81.17 74.395,81.152 74.404,80.298 78.562,80.342 
				78.552,81.196 76.936,81.179 			"/>
		</g>
	</g>
	<path fill="#41D305" d="M47.999,41.999c-3.005,0-7.581-0.268-7.581-0.268c-0.479-0.028-0.641-0.367-0.358-0.755
		c0,0,2.839-3.897,4.898-6.339c1.018-1.2,2.456-2.79,2.456-2.79c0.322-0.356,0.848-0.356,1.17,0c0,0,1.437,1.59,2.455,2.79
		c2.061,2.441,4.901,6.339,4.901,6.339c0.282,0.388,0.122,0.727-0.358,0.755C55.581,41.731,51.001,41.999,47.999,41.999z"/>
	<path fill="#6B6B6B" d="M92.456,38.469c-0.017-4.34-10.561-8.069-25.755-9.767c-0.91-0.04-1.383,0.628-1.396,1.272
		c-0.026,0.511,0.329,1.141,0.975,1.246c0.121,0.019,0.224,0.044,0.359,0.065c12.242,1.275,20.578,3.778,20.59,6.667
		c0.014,2.819-7.882,5.286-19.611,6.619c-3.065-4.992-6.805-10.352-11.075-15.763c-2.014-2.552-4.045-4.982-6.062-7.28
		C60.883,9.996,70.05,2.987,72.701,5.055c2.05,1.599-0.286,8.362-5.521,17.239c-0.164,0.286-0.299,1.128,0.35,1.565
		c0.611,0.413,1.437,0.185,1.796-0.394c0.051-0.089,0.147-0.225,0.198-0.314c6.453-11.242,9.063-20.097,5.966-22.513
		c-3.784-2.952-14.905,4.578-26.994,17.598v-0.003c-0.165,0.178-0.331,0.354-0.498,0.535c-0.166-0.181-0.332-0.357-0.497-0.535
		v0.003C35.413,5.216,24.293-2.314,20.509,0.638c-3.098,2.417-0.487,11.271,5.966,22.513c0.051,0.089,0.146,0.226,0.198,0.314
		c0.36,0.579,1.184,0.807,1.797,0.394c0.648-0.437,0.513-1.28,0.349-1.565c-5.235-8.876-7.571-15.64-5.521-17.239
		c2.652-2.068,11.818,4.94,22.221,16.475c-2.016,2.297-4.048,4.728-6.061,7.28c-4.271,5.411-8.011,10.771-11.076,15.763
		c-11.73-1.333-19.626-3.8-19.611-6.619c0.013-2.89,8.348-5.392,20.59-6.667c0.136-0.021,0.239-0.046,0.359-0.065
		c0.646-0.105,1-0.735,0.974-1.246c-0.013-0.644-0.487-1.312-1.396-1.272C14.103,30.4,3.56,34.129,3.542,38.469
		c-0.018,4.066,9.199,7.619,22.829,9.484c-6.386,11.167-8.947,19.944-5.863,22.35c3.339,2.604,12.396-2.957,22.787-13.248
		c0.346-0.315,0.561-1.15-0.069-1.762c-0.404-0.394-1.128-0.476-1.628-0.108c-0.196,0.143-0.382,0.327-0.518,0.455
		c-8.104,8.106-14.739,12.6-16.926,10.893c-2.127-1.656,0.463-8.759,6.114-18.106c5.287,0.566,11.113,0.888,17.233,0.913v0
		c0.085,0,0.17,0,0.256,0.001c0.065,0,0.131,0.001,0.197,0.001c0.015,0,0.03,0,0.043,0c0.016,0,0.03,0,0.045,0
		c0.066,0,0.131-0.001,0.197-0.001c0.086,0,0.17-0.001,0.255-0.001v0c6.121-0.024,11.946-0.347,17.234-0.913
		c5.651,9.347,8.242,16.45,6.114,18.106c-2.188,1.707-8.822-2.787-16.925-10.893c-0.137-0.128-0.323-0.312-0.519-0.455
		c-0.5-0.367-1.224-0.286-1.627,0.108c-0.63,0.612-0.416,1.446-0.069,1.762C63.094,67.347,72.15,72.908,75.49,70.304
		c3.083-2.406,0.524-11.184-5.863-22.35C83.256,46.088,92.474,42.536,92.456,38.469z M48.14,45.61c-0.047,0-0.094,0-0.142,0
		c-0.046,0-0.093,0-0.14,0c-5.481-0.008-10.695-0.238-15.43-0.639c2.815-4.349,6.187-9.064,9.98-13.867
		c1.704-2.158,3.407-4.218,5.093-6.185v0.004c0.165-0.193,0.332-0.391,0.497-0.582c0.166,0.191,0.333,0.389,0.498,0.582v-0.004
		c1.687,1.967,3.39,4.027,5.093,6.185c3.794,4.803,7.166,9.518,9.981,13.867C58.836,45.372,53.621,45.602,48.14,45.61z"/>
</g>
</svg>
