<?xml version="1.0" encoding="UTF-8" standalone="no"?>
<!-- Generator: Adobe Illustrator 16.0.4, SVG Export Plug-In . SVG Version: 6.00 Build 0)  -->

<svg
   xmlns:dc="http://purl.org/dc/elements/1.1/"
   xmlns:cc="http://creativecommons.org/ns#"
   xmlns:rdf="http://www.w3.org/1999/02/22-rdf-syntax-ns#"
   xmlns:svg="http://www.w3.org/2000/svg"
   xmlns="http://www.w3.org/2000/svg"
   xmlns:sodipodi="http://sodipodi.sourceforge.net/DTD/sodipodi-0.dtd"
   xmlns:inkscape="http://www.inkscape.org/namespaces/inkscape"
   version="1.2"
   id="Layer_1"
   x="0px"
   y="0px"
   width="160"
   height="160"
   viewBox="0 0 160 160"
   overflow="visible"
   xml:space="preserve"
   inkscape:version="0.91 r12937"
   sodipodi:docname="logo.svg"
   style="overflow:visible"><metadata
     id="metadata71"><rdf:RDF><cc:Work
         rdf:about=""><dc:format>image/svg+xml</dc:format><dc:type
           rdf:resource="http://purl.org/dc/dcmitype/StillImage" /><dc:title></dc:title></cc:Work></rdf:RDF></metadata><defs
     id="defs69" /><sodipodi:namedview
     pagecolor="#131313"
     bordercolor="#666666"
     borderopacity="1"
     objecttolerance="10"
     gridtolerance="10"
     guidetolerance="10"
     inkscape:pageopacity="0"
     inkscape:pageshadow="2"
     inkscape:window-width="640"
     inkscape:window-height="480"
     id="namedview67"
     showgrid="true"
     fit-margin-top="10"
     fit-margin-left="10"
     fit-margin-right="10"
     fit-margin-bottom="10"
     inkscape:current-layer="g3"><inkscape:grid
       type="xygrid"
       id="grid3359" /></sodipodi:namedview><g
     id="g3325"
     transform="matrix(3.3333333,0,0,3.3333333,10,-216.66666)"><g
       id="g3"><g
         id="g3380"
         transform="matrix(0.37282345,0,0,0.37282345,3.5538355,68.694645)"><g
           transform="matrix(1.0436363,0,0,1.0436363,-2.1000002,-2.3999909)"
           id="g5"><path
             style="fill:#ffffff"
             inkscape:connector-curvature="0"
             d="m 11.697,109.759 -3.372,0 -0.578,-3.848 -4.101,0 -0.579,3.848 -3.067,0 3.403,-21.202 4.892,0 3.402,21.202 z m -7.627,-6.724 3.22,0 -1.61,-10.722 -1.61,10.722 z"
             id="path7" /><path
             style="fill:#ffffff"
             inkscape:connector-curvature="0"
             d="m 16.953,88.558 10.329,0 0,3.028 -3.492,0 0,18.173 -3.344,0 0,-18.173 -3.493,0 0,-3.028 z"
             id="path9" /><path
             style="fill:#ffffff"
             inkscape:connector-curvature="0"
             d="m 34.299,93.646 c 0,-3.393 1.793,-5.33 5.073,-5.33 3.282,0 5.074,1.938 5.074,5.33 l 0,11.023 c 0,3.394 -1.792,5.331 -5.074,5.331 -3.28,0 -5.073,-1.937 -5.073,-5.331 l 0,-11.023 z m 3.342,11.237 c 0,1.513 0.669,2.089 1.73,2.089 1.064,0 1.732,-0.576 1.732,-2.089 l 0,-11.449 c 0,-1.515 -0.668,-2.09 -1.732,-2.09 -1.062,0 -1.73,0.575 -1.73,2.09 l 0,11.449 z"
             id="path11" /><path
             style="fill:#ffffff"
             inkscape:connector-curvature="0"
             d="m 59.513,103.61 2.279,-15.053 4.647,0 0,21.202 -3.159,0 0,-15.205 -2.31,15.205 -3.159,0 -2.491,-14.993 0,14.993 -2.916,0 0,-21.201 4.647,0 2.462,15.052 z"
             id="path13" /><path
             style="fill:#ffffff"
             inkscape:connector-curvature="0"
             d="m 74.704,88.558 3.34,0 0,21.202 -3.34,0 0,-21.202 z"
             id="path15" /><path
             style="fill:#ffffff"
             inkscape:connector-curvature="0"
             d="m 96,101.854 0,2.815 c 0,3.394 -1.701,5.331 -4.982,5.331 -3.281,0 -4.982,-1.937 -4.982,-5.331 l 0,-11.023 c 0,-3.393 1.701,-5.33 4.982,-5.33 3.281,0 4.982,1.938 4.982,5.33 l 0,2.059 -3.16,0 0,-2.271 c 0,-1.515 -0.668,-2.09 -1.732,-2.09 -1.064,0 -1.731,0.575 -1.731,2.09 l 0,11.449 c 0,1.513 0.667,2.059 1.731,2.059 1.064,0 1.732,-0.546 1.732,-2.059 l 0,-3.029 3.16,0 z"
             id="path17" /></g><g
           transform="matrix(1.0435857,-0.01027652,0.01027652,1.0435857,-2.9389658,-1.8476021)"
           id="g19"><g
             id="g21"><path
               style="fill:#41d305"
               inkscape:connector-curvature="0"
               d="m 17.734,79.945 2.431,0.025 c 0.2,0.002 0.369,0.014 0.507,0.033 0.139,0.02 0.252,0.047 0.342,0.083 0.089,0.037 0.158,0.081 0.206,0.135 0.049,0.05 0.083,0.112 0.104,0.182 0.022,0.07 0.034,0.148 0.037,0.236 0.003,0.087 0.003,0.182 0.003,0.287 -0.001,0.11 -0.006,0.209 -0.012,0.303 -0.006,0.092 -0.023,0.176 -0.05,0.251 -0.029,0.075 -0.073,0.14 -0.133,0.195 -0.062,0.055 -0.147,0.102 -0.258,0.139 -0.111,0.035 -0.251,0.063 -0.419,0.081 -0.168,0.019 -0.378,0.025 -0.624,0.022 l -1.75,-0.018 -0.014,1.276 -0.404,-0.004 0.034,-3.226 z m 0.389,1.618 1.748,0.019 c 0.18,0.002 0.331,0 0.454,-0.006 0.123,-0.004 0.223,-0.016 0.304,-0.031 0.08,-0.016 0.141,-0.039 0.186,-0.069 0.043,-0.031 0.077,-0.07 0.097,-0.121 0.021,-0.051 0.034,-0.11 0.039,-0.181 0.003,-0.071 0.007,-0.156 0.007,-0.253 0.001,-0.09 0,-0.169 -10e-4,-0.235 -0.003,-0.066 -0.015,-0.123 -0.036,-0.167 -0.019,-0.044 -0.053,-0.08 -0.095,-0.107 -0.043,-0.028 -0.104,-0.048 -0.184,-0.064 -0.079,-0.017 -0.182,-0.027 -0.302,-0.03 -0.125,-0.008 -0.276,-0.011 -0.455,-0.013 l -1.749,-0.018 -0.013,1.276 z"
               id="path23" /><path
               style="fill:#41d305"
               inkscape:connector-curvature="0"
               d="m 18.361,83.436 -0.923,-0.01 0.04,-3.742 2.689,0.028 c 0.206,0.002 0.388,0.014 0.541,0.035 0.163,0.021 0.294,0.056 0.403,0.099 0.13,0.055 0.229,0.119 0.302,0.202 0.072,0.075 0.127,0.17 0.16,0.279 0.028,0.092 0.044,0.192 0.047,0.304 10e-4,0.09 10e-4,0.19 10e-4,0.298 -10e-4,0.112 -0.004,0.219 -0.01,0.315 -0.008,0.116 -0.031,0.224 -0.065,0.324 -0.045,0.115 -0.113,0.214 -0.202,0.296 -0.086,0.081 -0.204,0.145 -0.35,0.193 -0.129,0.044 -0.292,0.075 -0.476,0.095 -0.178,0.018 -0.391,0.025 -0.654,0.022 l -1.489,-0.015 -0.014,1.277 z m 0.024,-2.131 1.49,0.017 c 0.165,0.002 0.313,10e-4 0.439,-0.004 0.11,-0.004 0.197,-0.014 0.264,-0.026 0.066,-0.014 0.086,-0.027 0.086,-0.027 0.015,-0.024 0.024,-0.054 0.027,-0.105 0.005,-0.07 0.006,-0.149 0.007,-0.241 0.002,-0.084 0.001,-0.158 -0.001,-0.218 -10e-4,-0.047 -0.009,-0.068 -0.013,-0.074 10e-4,0.005 -0.024,-0.01 -0.092,-0.024 -0.067,-0.013 -0.156,-0.022 -0.263,-0.027 -0.121,-0.003 -0.27,-0.008 -0.446,-0.01 l -1.489,-0.016 -0.009,0.755 z"
               id="path25" /></g><g
             id="g27"><path
               style="fill:#41d305"
               inkscape:connector-curvature="0"
               d="M 30.896,83.312 30.493,83.307 30.5,82.703 c 0,-0.099 0,-0.184 -0.003,-0.254 C 30.496,82.38 30.484,82.319 30.464,82.267 30.444,82.218 30.412,82.176 30.37,82.144 30.328,82.113 30.265,82.088 30.184,82.071 30.105,82.053 30.003,82.04 29.881,82.03 29.758,82.025 29.608,82.019 29.429,82.017 L 27.61,82 l -0.013,1.277 -0.404,-0.005 0.034,-3.224 2.29,0.023 c 0.246,0.003 0.455,0.015 0.624,0.034 0.168,0.021 0.307,0.048 0.417,0.083 0.11,0.038 0.194,0.08 0.254,0.134 0.06,0.052 0.103,0.114 0.13,0.184 0.026,0.07 0.04,0.149 0.045,0.236 0.003,0.087 0.005,0.182 0.004,0.287 -0.001,0.135 -0.013,0.254 -0.032,0.354 -0.021,0.102 -0.054,0.188 -0.1,0.258 -0.044,0.07 -0.104,0.128 -0.18,0.17 -0.075,0.041 -0.168,0.069 -0.282,0.084 0.113,0.02 0.202,0.05 0.269,0.091 0.067,0.043 0.119,0.1 0.155,0.167 0.035,0.068 0.059,0.147 0.068,0.24 0.011,0.093 0.016,0.197 0.015,0.317 l -0.008,0.602 z m -3.28,-1.646 1.882,0.02 c 0.179,0.002 0.331,0 0.454,-0.006 0.124,-0.004 0.225,-0.015 0.304,-0.029 0.082,-0.018 0.142,-0.041 0.187,-0.071 0.043,-0.03 0.078,-0.07 0.098,-0.121 0.02,-0.05 0.033,-0.11 0.038,-0.181 0.003,-0.07 0.007,-0.154 0.007,-0.253 0.002,-0.089 0,-0.17 0,-0.234 -0.004,-0.066 -0.015,-0.122 -0.036,-0.168 -0.02,-0.044 -0.052,-0.08 -0.094,-0.106 -0.044,-0.027 -0.105,-0.048 -0.186,-0.064 -0.08,-0.017 -0.179,-0.027 -0.303,-0.031 -0.123,-0.007 -0.274,-0.01 -0.454,-0.013 l -1.883,-0.02 -0.014,1.277 z"
               id="path29" /><path
               style="fill:#41d305"
               inkscape:connector-curvature="0"
               d="m 31.153,83.574 -0.923,-0.01 0.01,-0.862 c 0,-0.095 0,-0.174 -0.002,-0.243 -0.003,-0.053 -0.012,-0.085 -0.016,-0.098 -0.007,-0.007 -0.027,-0.021 -0.094,-0.036 -0.069,-0.015 -0.16,-0.028 -0.261,-0.033 -0.133,-0.007 -0.281,-0.013 -0.442,-0.013 l -1.557,-0.018 -0.014,1.276 -0.924,-0.01 0.041,-3.741 2.548,0.026 c 0.247,0.004 0.465,0.016 0.651,0.036 0.188,0.022 0.343,0.054 0.471,0.095 0.148,0.05 0.262,0.111 0.345,0.188 0.088,0.077 0.157,0.172 0.198,0.282 0.035,0.096 0.056,0.201 0.062,0.315 0.004,0.091 0.006,0.194 0.004,0.303 -0.001,0.146 -0.014,0.281 -0.037,0.399 -0.026,0.134 -0.071,0.251 -0.135,0.351 -0.033,0.046 -0.068,0.091 -0.108,0.131 0.03,0.036 0.057,0.076 0.079,0.117 0.051,0.099 0.083,0.21 0.099,0.333 0.012,0.103 0.016,0.216 0.016,0.349 l -0.011,0.863 z m -3.275,-2.165 1.622,0.017 c 0.168,0.001 0.315,0.001 0.441,-0.004 0.109,-0.005 0.199,-0.013 0.264,-0.028 0.067,-0.012 0.087,-0.025 0.087,-0.025 0.014,-0.024 0.022,-0.055 0.026,-0.106 0.004,-0.068 0.006,-0.148 0.007,-0.24 0.001,-0.085 0,-0.159 -0.003,-0.22 -10e-4,-0.046 -0.01,-0.067 -0.012,-0.073 0.001,0.002 -0.023,-0.009 -0.093,-0.024 -0.068,-0.013 -0.156,-0.022 -0.263,-0.028 -0.122,-0.003 -0.27,-0.008 -0.447,-0.009 l -1.622,-0.018 -0.007,0.758 z"
               id="path31" /></g><g
             id="g33"><path
               style="fill:#41d305"
               inkscape:connector-curvature="0"
               d="m 39.553,80.115 c 0.247,0.003 0.454,0.019 0.623,0.052 0.168,0.031 0.308,0.079 0.416,0.141 0.109,0.062 0.193,0.14 0.25,0.233 0.059,0.092 0.101,0.202 0.126,0.327 0.027,0.125 0.041,0.265 0.044,0.421 0.003,0.157 0.004,0.331 10e-4,0.522 -0.002,0.188 -0.006,0.362 -0.013,0.52 -0.006,0.156 -0.024,0.297 -0.052,0.42 -0.029,0.125 -0.073,0.233 -0.133,0.325 -0.061,0.092 -0.146,0.167 -0.256,0.228 -0.109,0.058 -0.25,0.103 -0.419,0.13 -0.169,0.03 -0.377,0.041 -0.625,0.039 L 38.298,83.46 c -0.246,-0.002 -0.455,-0.02 -0.625,-0.052 -0.169,-0.032 -0.307,-0.08 -0.416,-0.14 -0.107,-0.061 -0.192,-0.138 -0.251,-0.233 -0.059,-0.093 -0.101,-0.202 -0.126,-0.327 -0.025,-0.125 -0.04,-0.266 -0.043,-0.422 -0.003,-0.156 -0.003,-0.33 0,-0.519 0.002,-0.191 0.005,-0.366 0.012,-0.521 0.006,-0.157 0.022,-0.297 0.052,-0.421 0.028,-0.124 0.072,-0.233 0.133,-0.325 0.061,-0.091 0.146,-0.167 0.256,-0.227 0.11,-0.059 0.25,-0.104 0.42,-0.132 0.17,-0.028 0.377,-0.041 0.624,-0.038 l 1.219,0.012 z m -0.033,3.021 c 0.178,0.002 0.328,-10e-4 0.452,-0.01 0.123,-0.009 0.224,-0.028 0.304,-0.061 0.081,-0.032 0.143,-0.076 0.187,-0.134 0.043,-0.061 0.076,-0.142 0.098,-0.24 0.02,-0.101 0.032,-0.221 0.039,-0.366 0.006,-0.146 0.008,-0.318 0.01,-0.52 0.002,-0.202 0.004,-0.375 0,-0.521 -0.002,-0.144 -0.013,-0.267 -0.03,-0.366 -0.02,-0.1 -0.049,-0.179 -0.092,-0.241 -0.043,-0.061 -0.104,-0.106 -0.184,-0.14 C 40.226,80.504 40.125,80.482 40.003,80.47 39.88,80.46 39.73,80.451 39.549,80.449 l -1.217,-0.013 c -0.18,-0.002 -0.331,0.002 -0.454,0.011 -0.124,0.01 -0.225,0.031 -0.305,0.062 -0.08,0.031 -0.143,0.076 -0.187,0.136 -0.043,0.061 -0.075,0.139 -0.096,0.239 -0.021,0.099 -0.034,0.221 -0.038,0.366 -0.006,0.144 -0.009,0.319 -0.01,0.52 -0.002,0.201 -0.002,0.375 0,0.52 0.001,0.144 0.012,0.267 0.031,0.365 0.018,0.1 0.047,0.182 0.092,0.242 0.041,0.061 0.103,0.104 0.182,0.139 0.08,0.033 0.179,0.056 0.303,0.068 0.123,0.011 0.274,0.017 0.455,0.019 l 1.215,0.013 z"
               id="path35" /><path
               style="fill:#41d305"
               inkscape:connector-curvature="0"
               d="m 39.514,83.731 -1.217,-0.014 c -0.265,-0.003 -0.484,-0.02 -0.67,-0.057 -0.193,-0.035 -0.36,-0.093 -0.494,-0.167 -0.149,-0.086 -0.264,-0.195 -0.345,-0.323 -0.073,-0.117 -0.128,-0.256 -0.16,-0.411 -0.03,-0.139 -0.046,-0.298 -0.048,-0.47 -0.002,-0.16 -0.002,-0.335 -10e-4,-0.528 0.003,-0.193 0.008,-0.369 0.012,-0.528 0.008,-0.174 0.025,-0.329 0.059,-0.468 0.036,-0.155 0.093,-0.292 0.171,-0.41 0.083,-0.126 0.201,-0.23 0.349,-0.312 0.135,-0.073 0.3,-0.126 0.5,-0.159 0.185,-0.032 0.404,-0.046 0.671,-0.042 l 1.217,0.012 c 0.266,0.003 0.483,0.022 0.67,0.058 0.197,0.039 0.361,0.095 0.496,0.171 0.145,0.083 0.26,0.19 0.342,0.319 0.072,0.119 0.126,0.258 0.159,0.41 0.029,0.143 0.045,0.297 0.049,0.472 0.003,0.159 0.004,0.335 10e-4,0.529 -0.002,0.191 -0.007,0.368 -0.014,0.526 -0.006,0.173 -0.027,0.331 -0.059,0.47 -0.037,0.155 -0.092,0.29 -0.168,0.408 -0.083,0.126 -0.201,0.233 -0.35,0.313 -0.139,0.073 -0.305,0.126 -0.5,0.159 -0.186,0.032 -0.405,0.044 -0.67,0.042 z M 38.33,80.695 c -0.171,-0.002 -0.316,0.001 -0.433,0.01 -0.097,0.008 -0.175,0.023 -0.23,0.044 -0.031,0.014 -0.056,0.029 -0.072,0.049 -0.019,0.027 -0.039,0.075 -0.052,0.138 -0.017,0.084 -0.027,0.191 -0.03,0.319 -0.004,0.145 -0.009,0.316 -0.011,0.515 -0.002,0.2 -0.001,0.371 0,0.513 0.002,0.13 0.012,0.238 0.027,0.323 0.014,0.078 0.033,0.12 0.049,0.143 0.013,0.017 0.037,0.034 0.07,0.047 0.053,0.022 0.129,0.039 0.228,0.048 0.117,0.012 0.261,0.017 0.43,0.019 l 1.218,0.013 c 0.166,0.002 0.312,0 0.43,-0.008 0.097,-0.008 0.174,-0.022 0.226,-0.043 0.037,-0.015 0.061,-0.031 0.077,-0.05 0.013,-0.019 0.034,-0.06 0.051,-0.138 0.017,-0.082 0.029,-0.191 0.033,-0.322 0.005,-0.142 0.008,-0.312 0.012,-0.511 10e-4,-0.2 10e-4,-0.37 0,-0.515 -0.003,-0.129 -0.012,-0.237 -0.027,-0.32 -0.012,-0.062 -0.029,-0.111 -0.05,-0.142 -0.013,-0.019 -0.037,-0.035 -0.069,-0.049 -0.053,-0.023 -0.13,-0.04 -0.228,-0.048 -0.115,-0.012 -0.261,-0.019 -0.432,-0.02 L 38.33,80.695 Z"
               id="path37" /></g><g
             id="g39"><path
               style="fill:#41d305"
               inkscape:connector-curvature="0"
               d="M 47.794,83.494 C 47.592,83.492 47.43,83.472 47.305,83.433 47.184,83.396 47.089,83.335 47.023,83.251 46.956,83.164 46.911,83.055 46.89,82.917 46.87,82.778 46.861,82.61 46.864,82.408 l 0.002,-0.133 0.401,0.005 0,0.134 c -0.003,0.166 0.006,0.296 0.023,0.396 0.017,0.098 0.045,0.171 0.089,0.224 0.042,0.053 0.097,0.085 0.166,0.101 0.067,0.015 0.153,0.022 0.253,0.024 l 0.942,0.009 c 0.134,0.002 0.248,-0.009 0.334,-0.031 0.087,-0.023 0.155,-0.06 0.207,-0.11 0.051,-0.049 0.087,-0.112 0.108,-0.189 0.021,-0.077 0.029,-0.167 0.031,-0.272 l 0.024,-2.277 0.407,0.004 -0.026,2.284 c 0,0.168 -0.021,0.312 -0.06,0.43 -0.039,0.118 -0.099,0.216 -0.182,0.289 -0.086,0.075 -0.198,0.129 -0.336,0.163 -0.139,0.034 -0.308,0.049 -0.51,0.048 l -0.943,-0.013 z"
               id="path41" /><path
               style="fill:#41d305"
               inkscape:connector-curvature="0"
               d="m 48.734,83.763 -0.942,-0.01 C 47.563,83.751 47.379,83.727 47.23,83.682 47.059,83.629 46.918,83.536 46.819,83.411 46.724,83.289 46.661,83.138 46.634,82.958 46.612,82.803 46.601,82.624 46.603,82.406 l 0.004,-0.393 0.923,0.01 -0.004,0.392 c -0.001,0.15 0.007,0.268 0.02,0.348 0.014,0.081 0.033,0.105 0.034,0.107 0.005,0.004 0.007,0.008 0.021,0.012 0.048,0.01 0.117,0.016 0.199,0.017 l 0.944,0.01 c 0.136,0.002 0.219,-0.013 0.265,-0.024 0.042,-0.01 0.073,-0.026 0.092,-0.045 0.016,-0.015 0.028,-0.039 0.037,-0.072 0.016,-0.054 0.024,-0.124 0.024,-0.207 l 0.027,-2.536 0.925,0.011 -0.029,2.542 c -10e-4,0.192 -0.026,0.363 -0.073,0.506 -0.051,0.162 -0.138,0.298 -0.259,0.404 -0.115,0.103 -0.265,0.177 -0.444,0.22 -0.161,0.04 -0.35,0.058 -0.575,0.055 z"
               id="path43" /></g><g
             id="g45"><path
               style="fill:#41d305"
               inkscape:connector-curvature="0"
               d="m 55.912,83.582 0.034,-3.225 3.235,0.035 -0.003,0.337 -2.829,-0.031 -0.012,1.074 2.694,0.029 -0.003,0.335 -2.694,-0.03 -0.012,1.143 2.829,0.03 -0.003,0.336 -3.236,-0.033 z"
               id="path47" /><polygon
               style="fill:#41d305"
               points="59.285,82.4 56.59,82.371 56.583,82.995 59.413,83.024 59.403,83.878 55.651,83.838 55.692,80.097 59.444,80.136 59.436,80.991 56.605,80.96 56.599,81.515 59.293,81.545 "
               id="polygon49" /></g><g
             id="g51"><path
               style="fill:#41d305"
               inkscape:connector-curvature="0"
               d="M 68.391,81.5 C 68.393,81.332 68.377,81.199 68.342,81.1 68.305,81.003 68.246,80.928 68.164,80.877 68.08,80.823 67.97,80.791 67.833,80.774 67.695,80.759 67.527,80.75 67.324,80.748 l -0.946,-0.01 c -0.179,-0.003 -0.33,0.002 -0.453,0.012 -0.124,0.009 -0.226,0.028 -0.306,0.06 -0.079,0.031 -0.142,0.076 -0.188,0.136 -0.042,0.062 -0.075,0.14 -0.094,0.239 -0.021,0.099 -0.035,0.221 -0.039,0.366 -0.005,0.144 -0.008,0.318 -0.009,0.52 -0.003,0.201 -0.004,0.375 -0.001,0.521 0.001,0.144 0.013,0.265 0.031,0.365 0.017,0.099 0.047,0.181 0.089,0.242 0.044,0.06 0.106,0.104 0.185,0.139 0.079,0.034 0.181,0.056 0.303,0.068 0.122,0.011 0.273,0.018 0.452,0.019 l 0.947,0.011 c 0.156,0.002 0.292,0 0.406,-0.008 0.113,-0.007 0.212,-0.021 0.292,-0.043 0.081,-0.022 0.145,-0.052 0.195,-0.09 0.049,-0.038 0.087,-0.087 0.117,-0.146 0.028,-0.06 0.046,-0.131 0.057,-0.212 0.01,-0.084 0.018,-0.181 0.018,-0.294 l 0.404,0.005 c -0.001,0.135 -0.01,0.257 -0.029,0.364 -0.018,0.107 -0.047,0.204 -0.092,0.29 -0.045,0.082 -0.101,0.155 -0.174,0.216 -0.072,0.061 -0.164,0.111 -0.274,0.15 -0.109,0.038 -0.24,0.067 -0.39,0.084 -0.153,0.017 -0.331,0.022 -0.531,0.02 l -0.948,-0.009 c -0.246,-0.003 -0.453,-0.02 -0.622,-0.052 -0.169,-0.032 -0.308,-0.079 -0.418,-0.14 -0.109,-0.062 -0.192,-0.139 -0.25,-0.233 -0.059,-0.093 -0.102,-0.202 -0.128,-0.326 -0.025,-0.124 -0.041,-0.266 -0.043,-0.422 0,-0.156 -0.002,-0.33 0,-0.52 0.002,-0.191 0.006,-0.365 0.012,-0.521 0.006,-0.157 0.023,-0.296 0.052,-0.42 0.029,-0.124 0.073,-0.233 0.133,-0.325 0.062,-0.091 0.147,-0.166 0.256,-0.227 0.111,-0.059 0.251,-0.104 0.421,-0.132 0.169,-0.028 0.375,-0.04 0.623,-0.037 l 0.947,0.01 c 0.202,0.003 0.378,0.013 0.529,0.034 0.152,0.021 0.281,0.049 0.39,0.089 0.109,0.04 0.199,0.089 0.271,0.149 0.071,0.06 0.126,0.128 0.169,0.21 0.042,0.078 0.07,0.171 0.086,0.271 0.018,0.1 0.023,0.214 0.022,0.336 L 68.391,81.5 Z"
               id="path53" /><path
               style="fill:#41d305"
               inkscape:connector-curvature="0"
               d="m 67.288,84.03 -0.945,-0.01 c -0.261,-0.003 -0.488,-0.022 -0.67,-0.057 -0.192,-0.036 -0.358,-0.094 -0.494,-0.167 -0.148,-0.084 -0.264,-0.193 -0.344,-0.322 -0.074,-0.118 -0.13,-0.256 -0.161,-0.412 -0.031,-0.141 -0.046,-0.3 -0.05,-0.472 0,-0.158 -0.003,-0.333 0,-0.525 0.002,-0.195 0.007,-0.37 0.013,-0.528 0.006,-0.17 0.024,-0.328 0.057,-0.469 0.037,-0.154 0.095,-0.293 0.171,-0.409 0.086,-0.127 0.203,-0.232 0.35,-0.312 0.136,-0.073 0.3,-0.125 0.5,-0.16 0.184,-0.032 0.404,-0.045 0.668,-0.043 l 0.947,0.011 c 0.21,0.002 0.399,0.015 0.562,0.038 0.167,0.023 0.318,0.057 0.444,0.104 0.139,0.05 0.254,0.115 0.349,0.195 0.095,0.078 0.173,0.175 0.231,0.287 0.054,0.103 0.093,0.22 0.113,0.35 0.019,0.118 0.026,0.245 0.023,0.379 l -0.001,0.259 -0.923,-0.01 0.004,-0.26 C 68.133,81.329 68.111,81.237 68.096,81.19 68.075,81.134 68.047,81.111 68.025,81.098 67.989,81.077 67.923,81.047 67.8,81.035 67.675,81.02 67.514,81.012 67.321,81.01 l -0.946,-0.011 c -0.17,-0.002 -0.314,0.002 -0.43,0.011 -0.098,0.008 -0.176,0.021 -0.23,0.043 -0.035,0.014 -0.058,0.029 -0.073,0.05 -0.02,0.028 -0.038,0.077 -0.051,0.138 -0.018,0.082 -0.028,0.191 -0.032,0.32 -0.004,0.143 -0.008,0.314 -0.01,0.516 -0.003,0.198 -0.003,0.369 -0.001,0.511 0.001,0.13 0.011,0.239 0.027,0.323 0.014,0.079 0.033,0.122 0.05,0.142 0.002,0.006 0.017,0.028 0.068,0.048 0.054,0.022 0.13,0.039 0.229,0.049 0.117,0.011 0.263,0.017 0.43,0.019 l 0.946,0.01 c 0.157,0.002 0.284,-0.001 0.385,-0.007 0.098,-0.005 0.178,-0.018 0.238,-0.034 0.06,-0.017 0.091,-0.033 0.106,-0.045 0.018,-0.013 0.031,-0.03 0.042,-0.054 0.011,-0.022 0.025,-0.062 0.035,-0.137 0.008,-0.072 0.015,-0.159 0.016,-0.262 l 0.002,-0.258 0.923,0.011 -0.003,0.258 c -0.001,0.146 -0.012,0.283 -0.032,0.402 -0.021,0.138 -0.062,0.26 -0.118,0.368 -0.061,0.114 -0.14,0.214 -0.237,0.295 -0.096,0.08 -0.215,0.147 -0.355,0.196 -0.128,0.045 -0.274,0.077 -0.449,0.098 -0.161,0.015 -0.344,0.022 -0.563,0.02 z"
               id="path55" /></g><g
             id="g57"><path
               style="fill:#41d305"
               inkscape:connector-curvature="0"
               d="m 78.301,80.598 -0.005,0.337 -1.617,-0.017 -0.031,2.887 -0.404,-0.004 0.032,-2.889 -1.617,-0.016 0.003,-0.338 3.639,0.04 z"
               id="path59" /><polygon
               style="fill:#41d305"
               points="76.903,84.066 75.981,84.057 76.014,81.17 74.395,81.152 74.404,80.298 78.562,80.342 78.552,81.196 76.936,81.179 "
               id="polygon61" /></g></g><path
           style="fill:#41d305"
           inkscape:connector-curvature="0"
           d="m 47.993497,41.431689 c -3.136127,0 -7.911806,-0.279694 -7.911806,-0.279694 -0.499902,-0.02922 -0.668971,-0.383015 -0.373622,-0.787946 0,0 2.962883,-4.06705 5.11173,-6.61561 1.062422,-1.252364 2.563171,-2.911745 2.563171,-2.911745 0.336051,-0.371535 0.885004,-0.371535 1.221055,0 0,0 1.499705,1.659381 2.562127,2.911745 2.150934,2.547516 5.114861,6.61561 5.114861,6.61561 0.294306,0.404931 0.127324,0.758724 -0.373622,0.787946 -10e-4,0 -4.780898,0.279694 -7.913894,0.279694 z"
           id="path63" /><path
           style="fill:#6b6b6b"
           inkscape:connector-curvature="0"
           d="m 94.390436,37.747653 c -0.01774,-4.529381 -11.021843,-8.421101 -26.878853,-10.193195 -0.949709,-0.04175 -1.443349,0.655403 -1.456916,1.327505 -0.02714,0.533298 0.343356,1.190789 1.017545,1.300371 0.12628,0.01983 0.233775,0.04592 0.374666,0.06784 12.776195,1.330636 21.475947,3.942858 21.488471,6.957923 0.01461,2.942011 -8.225941,5.516662 -20.466751,6.907829 C 65.269852,38.906089 61.366653,33.312199 56.910326,27.665083 54.808442,25.001723 52.688817,22.465687 50.583803,20.067411 61.439707,8.0321974 71.006721,0.71735067 73.773401,2.8755905 c 2.139454,1.6687744 -0.29848,8.7268865 -5.761916,17.9912455 -0.171156,0.29848 -0.312047,1.177222 0.365273,1.633291 0.637661,0.431022 1.499705,0.193073 1.87437,-0.411193 0.05323,-0.09288 0.153415,-0.234818 0.20664,-0.327701 C 77.192353,10.028674 79.916244,0.7872743 76.684102,-1.734151 72.734983,-4.8149653 61.128704,3.0436159 48.512185,16.63176 l 0,-0.0031 c -0.1722,0.185768 -0.345444,0.369448 -0.519731,0.558346 -0.173244,-0.188898 -0.346488,-0.372578 -0.518688,-0.558346 l 0,0.0031 C 34.858291,3.0436159 23.253056,-4.8149653 19.303936,-1.734151 c -3.233185,2.52246894 -0.508251,11.762825 6.226334,23.495384 0.05323,0.09288 0.152371,0.235861 0.20664,0.327701 0.375709,0.604266 1.235665,0.842215 1.875414,0.411193 0.676277,-0.456069 0.535386,-1.335854 0.364229,-1.633291 C 22.513118,11.603521 20.075183,4.5443649 22.214638,2.8755905 24.982361,0.71735067 34.548331,8.0311537 45.405279,20.069498 43.301309,22.466731 41.18064,25.003811 39.0798,27.66717 34.622429,33.314286 30.71923,38.908177 27.520484,44.118009 15.278631,42.726842 7.0380791,40.152191 7.0537336,37.210181 c 0.013567,-3.016109 8.7122754,-5.627287 21.4884704,-6.957924 0.141935,-0.02192 0.249429,-0.04801 0.374666,-0.06784 0.674189,-0.109582 1.043636,-0.767073 1.016502,-1.300371 -0.01357,-0.672102 -0.508251,-1.369251 -1.456917,-1.327505 -15.858053,1.770007 -26.86111,5.661727 -26.8798955,10.191108 -0.018785,4.243425 9.6004095,7.951465 23.8251725,9.897847 -6.664661,11.654286 -9.337414,20.814282 -6.11884,23.325271 3.484702,2.717628 12.936916,-3.086033 23.78134,-13.826094 0.361098,-0.328745 0.58548,-1.200182 -0.07201,-1.838887 -0.421629,-0.411193 -1.177221,-0.496771 -1.699039,-0.112713 -0.204553,0.14924 -0.39867,0.341269 -0.540604,0.474855 -8.457628,8.459715 -15.382155,13.149817 -17.664588,11.36833 -2.219814,-1.728262 0.483204,-9.14121 6.380792,-18.896079 5.517705,0.590698 11.59793,0.926749 17.984984,0.95284 l 0,0 c 0.08871,0 0.177419,0 0.267171,0.001 0.06784,0 0.136717,10e-4 0.205597,10e-4 0.01565,0 0.03131,0 0.04488,0 0.0167,0 0.03131,0 0.04696,0 0.06888,0 0.136716,-10e-4 0.205596,-10e-4 0.08975,0 0.177418,-0.001 0.266127,-0.001 l 0,0 c 6.388098,-0.02505 12.467279,-0.362142 17.986028,-0.95284 5.897589,9.754869 8.60165,17.167817 6.380792,18.896079 -2.283476,1.781487 -9.206959,-2.908615 -17.663544,-11.36833 -0.142978,-0.133586 -0.337094,-0.325615 -0.541647,-0.474855 -0.521818,-0.383014 -1.277411,-0.29848 -1.697996,0.112713 -0.657491,0.638705 -0.434153,1.509098 -0.07201,1.838887 10.845468,10.741105 20.296638,16.544766 23.782383,13.827137 3.217531,-2.510989 0.546866,-11.672028 -6.118839,-23.325271 14.223719,-1.947425 23.843958,-5.654421 23.825173,-9.89889 z M 48.14065,45.20026 c -0.04905,0 -0.0981,0 -0.148196,0 -0.04801,0 -0.09706,0 -0.146109,0 -5.720171,-0.0083 -11.16169,-0.248386 -16.103308,-0.666884 2.937836,-4.538774 6.456978,-9.459519 10.41549,-14.472104 1.778356,-2.252167 3.555669,-4.402058 5.315239,-6.45489 l 0,0.0042 c 0.1722,-0.201422 0.346488,-0.408062 0.518688,-0.607396 0.173243,0.199334 0.347531,0.405974 0.519731,0.607396 l 0,-0.0042 c 1.760614,2.052832 3.537927,4.202723 5.315239,6.45489 3.959556,5.012585 7.478698,9.93333 10.416534,14.472104 -4.940574,0.418498 -10.383137,0.658535 -16.103308,0.666884 z"
           id="path65" /></g></g></g></svg>