<?xml version="1.0" encoding="UTF-8" standalone="no"?>
<!-- Generator: Adobe Illustrator 16.0.4, SVG Export Plug-In . SVG Version: 6.00 Build 0)  -->

<svg
   xmlns:dc="http://purl.org/dc/elements/1.1/"
   xmlns:cc="http://creativecommons.org/ns#"
   xmlns:rdf="http://www.w3.org/1999/02/22-rdf-syntax-ns#"
   xmlns:svg="http://www.w3.org/2000/svg"
   xmlns="http://www.w3.org/2000/svg"
   xmlns:sodipodi="http://sodipodi.sourceforge.net/DTD/sodipodi-0.dtd"
   xmlns:inkscape="http://www.inkscape.org/namespaces/inkscape"
   version="1.2"
   id="Layer_1"
   x="0px"
   y="0px"
   width="144px"
   height="39px"
   viewBox="0 0 144 39"
   overflow="visible"
   xml:space="preserve"
   inkscape:version="0.91 r13258 custom"
   sodipodi:docname="logo-horizontal.svg"
   inkscape:export-filename="/home/tigert/SparkleShare/atomic-design/social-media/askbot/atomic-ask-avatar.png"
   inkscape:export-xdpi="147.69231"
   inkscape:export-ydpi="147.69231"><metadata
     id="metadata69"><rdf:RDF><cc:Work
         rdf:about=""><dc:format>image/svg+xml</dc:format><dc:type
           rdf:resource="http://purl.org/dc/dcmitype/StillImage" /><dc:title></dc:title></cc:Work></rdf:RDF></metadata><defs
     id="defs67" /><sodipodi:namedview
     pagecolor="#232323"
     bordercolor="#666666"
     borderopacity="1"
     objecttolerance="10"
     gridtolerance="10"
     guidetolerance="10"
     inkscape:pageopacity="0"
     inkscape:pageshadow="2"
     inkscape:window-width="640"
     inkscape:window-height="480"
     id="namedview65"
     showgrid="false"
     inkscape:current-layer="Layer_1"
     inkscape:snap-bbox="true"
     inkscape:bbox-nodes="true"
     inkscape:bbox-paths="true"
     inkscape:snap-bbox-edge-midpoints="true"
     inkscape:snap-bbox-midpoints="true"
     fit-margin-top="3"
     fit-margin-left="3"
     fit-margin-right="3"
     fit-margin-bottom="3"
     inkscape:snap-center="true"
     inkscape:snap-object-midpoints="true"><inkscape:grid
       color="#61619e"
       opacity="0.12156863"
       empcolor="#61619e"
       empopacity="0.29803922"
       type="xygrid"
       id="grid3362" /></sodipodi:namedview><g
     id="g3"
     inkscape:export-filename="/home/tigert/SparkleShare/atomic-design/social-media/askbot/polygon4292-8.png"
     inkscape:export-xdpi="205.75999"
     inkscape:export-ydpi="205.75999"
     transform="translate(-1,1.5267493)"><path
       d="m 67.281,32.834 -3.069,0 -0.525,-3.512 -3.732,0 -0.526,3.512 -2.792,0 3.098,-19.353 4.451,0 3.095,19.353 z m -6.94,-6.137 2.93,0 -1.465,-9.787 -1.465,9.787 z"
       id="path5"
       inkscape:connector-curvature="0"
       style="fill:#ffffff" /><path
       d="m 72.064,13.482 9.399,0 0,2.764 -3.179,0 0,16.588 -3.043,0 0,-16.588 -3.178,0 0,-2.764 z"
       id="path7"
       inkscape:connector-curvature="0"
       style="fill:#ffffff" /><path
       d="m 87.85,18.126 c 0,-3.097 1.632,-4.865 4.617,-4.865 2.986,0 4.617,1.769 4.617,4.865 l 0,10.062 c 0,3.098 -1.631,4.867 -4.617,4.867 -2.985,0 -4.617,-1.769 -4.617,-4.867 l 0,-10.062 z m 3.042,10.257 c 0,1.381 0.608,1.907 1.575,1.907 0.968,0 1.576,-0.526 1.576,-1.907 l 0,-10.451 c 0,-1.383 -0.608,-1.907 -1.576,-1.907 -0.967,0 -1.575,0.524 -1.575,1.907 l 0,10.451 z"
       id="path9"
       inkscape:connector-curvature="0"
       style="fill:#ffffff" /><path
       d="m 110.796,27.221 2.074,-13.739 4.23,0 0,19.353 -2.876,0 0,-13.88 -2.101,13.879 -2.876,0 -2.266,-13.686 0,13.686 -2.654,0 0,-19.352 4.229,0 2.24,13.739 z"
       id="path11"
       inkscape:connector-curvature="0"
       style="fill:#ffffff" /><path
       d="m 124.62,13.482 3.041,0 0,19.353 -3.041,0 0,-19.353 z"
       id="path13"
       inkscape:connector-curvature="0"
       style="fill:#ffffff" /><path
       d="m 144,25.618 0,2.57 c 0,3.098 -1.548,4.867 -4.534,4.867 -2.985,0 -4.534,-1.769 -4.534,-4.867 l 0,-10.062 c 0,-3.097 1.549,-4.865 4.534,-4.865 2.986,0 4.534,1.769 4.534,4.865 l 0,1.88 -2.875,0 0,-2.074 c 0,-1.383 -0.608,-1.907 -1.576,-1.907 -0.968,0 -1.575,0.524 -1.575,1.907 l 0,10.451 c 0,1.381 0.607,1.879 1.575,1.879 0.968,0 1.576,-0.499 1.576,-1.879 l 0,-2.766 2.875,0 z"
       id="path15"
       inkscape:connector-curvature="0"
       style="fill:#ffffff" /></g><path
     d="M24.128,22.862c-1.631,0-4.114-0.146-4.114-0.146c-0.261-0.015-0.349-0.2-0.194-0.411  c0,0,1.541-2.122,2.658-3.451c0.552-0.654,1.333-1.519,1.333-1.519c0.175-0.194,0.46-0.194,0.636,0c0,0,0.778,0.865,1.331,1.519  c1.119,1.329,2.66,3.451,2.66,3.451c0.153,0.211,0.065,0.396-0.194,0.411C28.243,22.716,25.758,22.862,24.128,22.862z"
     id="path61"
     inkscape:export-filename="/home/tigert/SparkleShare/atomic-design/social-media/askbot/polygon4292-8.png"
     inkscape:export-xdpi="205.75999"
     inkscape:export-ydpi="205.75999"
     fill="#41D305" /><path
     d="M48.257,20.941c-0.01-2.363-5.732-4.393-13.979-5.317c-0.493-0.021-0.75,0.343-0.758,0.692  c-0.014,0.279,0.18,0.622,0.529,0.679c0.065,0.011,0.122,0.024,0.195,0.036c6.645,0.694,11.168,2.057,11.176,3.63  c0.007,1.534-4.277,2.877-10.644,3.603c-1.664-2.718-3.693-5.635-6.012-8.581c-1.093-1.39-2.195-2.712-3.29-3.963  c5.646-6.279,10.621-10.094,12.06-8.968c1.112,0.871-0.155,4.552-2.996,9.384c-0.089,0.156-0.162,0.614,0.189,0.852  c0.332,0.225,0.78,0.101,0.976-0.214c0.027-0.048,0.079-0.123,0.107-0.171c3.502-6.12,4.918-10.94,3.237-12.255  c-2.054-1.607-8.089,2.492-14.649,9.58V9.925c-0.091,0.097-0.181,0.192-0.271,0.291c-0.09-0.099-0.181-0.194-0.27-0.291v0.002  C17.298,2.839,11.262-1.26,9.208,0.347c-1.681,1.315-0.264,6.136,3.238,12.255c0.027,0.048,0.079,0.123,0.107,0.171  c0.195,0.315,0.643,0.439,0.976,0.214c0.352-0.238,0.278-0.696,0.188-0.852c-2.841-4.832-4.108-8.514-2.996-9.384  c1.438-1.125,6.414,2.689,12.06,8.968c-1.094,1.25-2.197,2.573-3.289,3.963c-2.318,2.945-4.349,5.863-6.012,8.581  c-6.366-0.726-10.651-2.069-10.644-3.603c0.007-1.573,4.53-2.936,11.175-3.63c0.074-0.011,0.13-0.024,0.195-0.036  c0.351-0.057,0.543-0.4,0.528-0.679c-0.006-0.35-0.264-0.714-0.757-0.692C5.731,16.548,0.01,18.578,0,20.941  c-0.01,2.214,4.993,4.147,12.391,5.163C8.924,32.183,7.534,36.96,9.208,38.271c1.812,1.417,6.729-1.609,12.367-7.212  c0.188-0.171,0.305-0.626-0.037-0.959c-0.22-0.214-0.612-0.258-0.884-0.059c-0.106,0.078-0.207,0.178-0.281,0.248  c-4.398,4.413-7.999,6.859-9.187,5.93c-1.155-0.901,0.251-4.769,3.318-9.856c2.87,0.309,6.031,0.483,9.354,0.497v0  c0.047,0,0.092,0,0.139,0c0.036,0,0.071,0.001,0.107,0.001c0.008,0,0.016,0,0.023,0s0.017,0,0.023,0c0.036,0,0.072,0,0.108-0.001  c0.046,0,0.092,0,0.139,0v0c3.321-0.013,6.482-0.188,9.353-0.497c3.067,5.088,4.474,8.955,3.318,9.856  c-1.187,0.929-4.788-1.517-9.186-5.93c-0.074-0.07-0.176-0.17-0.281-0.248c-0.272-0.2-0.664-0.155-0.885,0.059  c-0.341,0.333-0.225,0.788-0.036,0.959c5.64,5.603,10.555,8.629,12.366,7.212c1.674-1.31,0.284-6.088-3.182-12.167  C43.263,25.088,48.267,23.155,48.257,20.941z M24.205,24.828c-0.026,0-0.052,0-0.077,0s-0.051,0-0.076,0  c-2.975-0.004-5.805-0.128-8.374-0.347c1.527-2.368,3.357-4.935,5.416-7.549c0.925-1.174,1.849-2.296,2.765-3.367v0.002  c0.089-0.105,0.18-0.212,0.27-0.316c0.09,0.104,0.18,0.211,0.271,0.316v-0.002c0.915,1.071,1.84,2.192,2.764,3.367  c2.06,2.615,3.889,5.182,5.416,7.549C30.01,24.699,27.18,24.824,24.205,24.828z"
     id="path63"
     inkscape:export-filename="/home/tigert/SparkleShare/atomic-design/social-media/askbot/polygon4292-8.png"
     inkscape:export-xdpi="205.75999"
     inkscape:export-ydpi="205.75999"
     fill="#6B6B6B" /><path
     d="M 67.9341,5.7987466 C 67.893223,5.6540375 67.825621,5.5270284 67.737736,5.4285227 67.649284,5.3191101 67.529298,5.2339059 67.371399,5.164028 67.240083,5.107744 67.081135,5.0651171 66.885632,5.0383348 66.70133,5.0124686 66.481804,4.9998261 66.234623,5.000004 l -3.23464,0.00319 0.0036,4.9967982 1.10999,-0.00159 2.58e-4,-1.7044514 1.791048,-0.0013 c 0.316572,-0.00158 0.572117,-0.014026 0.786314,-0.040617 0.222243,-0.028938 0.416121,-0.073262 0.570878,-0.1321173 0.174382,-0.067182 0.314957,-0.1571318 0.417731,-0.2644903 0.10542,-0.1108713 0.185544,-0.2442198 0.237671,-0.3990121 0.04124,-0.1333499 0.06652,-0.2788897 0.07477,-0.4336298 0.006,-0.1289466 0.0076,-0.2712024 0.0078,-0.4213786 -0.0015,-0.1442023 -0.0029,-0.2780036 -0.0057,-0.3979051 -0.0037,-0.1471513 -0.02427,-0.2812048 -0.06025,-0.4046582 z m -1.04824,1.1254372 c -0.0036,0.067946 -0.01367,0.1077177 -0.03073,0.1406461 0,0 -0.02441,0.017741 -0.103492,0.037009 -0.07952,0.018343 -0.184607,0.031575 -0.317077,0.038711 -0.151252,0.00884 -0.330325,0.012209 -0.528228,0.01271 l -1.792863,3.886e-4 -5.8e-4,-1.0105682 1.791037,-0.0023 c 0.213157,0.00202 0.392295,0.00486 0.53652,0.0075 0.129452,0.00461 0.236126,0.015383 0.316894,0.031518 0.08257,0.018283 0.112339,0.038302 0.111358,0.031261 0.0058,0.00783 0.01383,0.035486 0.01665,0.098415 0.0052,0.080263 0.0062,0.1788466 0.0045,0.2913774 0.0013,0.1233926 2.71e-4,0.2289622 -0.0045,0.3231913 z"
     id="path4280-8"
     inkscape:connector-curvature="0"
     style="color:#000000;color-interpolation:sRGB;color-interpolation-filters:linearRGB;fill:#46d200;fill-opacity:1;fill-rule:nonzero;stroke-width:1;stroke-linecap:butt;stroke-linejoin:miter;stroke-miterlimit:4;stroke-opacity:1;stroke-dasharray:none;stroke-dashoffset:0;marker:none;visibility:visible;display:inline;overflow:visible;isolation:auto;mix-blend-mode:normal;enable-background:accumulate;clip-rule:nonzero;color-rendering:auto;image-rendering:auto;shape-rendering:auto;text-rendering:auto"
     inkscape:export-filename="/home/tigert/SparkleShare/atomic-design/social-media/askbot/polygon4292-8.png"
     inkscape:export-xdpi="205.75999"
     inkscape:export-ydpi="205.75999" /><path
     d="M 78.914896,5.7785059 C 78.865789,5.6309372 78.783226,5.5051279 78.679079,5.403877 78.580604,5.3015719 78.445208,5.2220455 78.270628,5.157396 78.121078,5.10436 77.938888,5.064065 77.717077,5.0386925 77.499631,5.0133125 77.242559,5.0012095 76.952829,4.9999745 l -2.99118,0.00415 0.0027,4.9958945 1.08418,-6.476e-4 -0.0015,-1.7044456 1.829248,-3.719e-4 c 0.189635,-0.00168 0.363171,0.00328 0.519248,0.010577 0.118479,0.00552 0.224823,0.020406 0.306732,0.039705 0.07886,0.018329 0.101763,0.03727 0.110599,0.04716 0.0059,0.017212 0.01588,0.059722 0.0201,0.1315786 0.0053,0.091121 0.0064,0.1971761 0.0056,0.323075 l -1.51e-4,1.1518446 1.083734,-6.419e-4 1.51e-4,-1.1518446 C 78.92049,8.6680986 78.91449,8.5170147 78.89879,8.3799249 78.87915,8.21663 78.83917,8.0689488 78.778528,7.9379008 c -0.02677,-0.055635 -0.05868,-0.1077796 -0.09421,-0.1553921 0.04497,-0.052565 0.08668,-0.1136325 0.124506,-0.1760857 0.07295,-0.1337794 0.124237,-0.2910496 0.153884,-0.4713535 0.02465,-0.1579263 0.0377,-0.337522 0.0375,-0.5327901 -1.02e-4,-0.1452116 -0.0028,-0.282461 -0.0093,-0.4043091 -0.0074,-0.1530514 -0.03404,-0.2929672 -0.07637,-0.4192955 z m -1.962204,1.3760206 -1.904835,0.00138 -2.31e-4,-1.0115724 1.904397,-0.00138 c 0.208873,-0.00102 0.381971,0.00397 0.525323,0.00562 0.125477,0.00621 0.2287,0.016405 0.308412,0.032708 0.08277,0.018281 0.111339,0.034207 0.10956,0.031283 0.0022,0.00695 0.01295,0.034566 0.01454,0.096472 0.0059,0.082176 0.0069,0.17883 0.0067,0.2943192 5.84e-4,0.1228973 -0.0019,0.2294926 -0.0055,0.3202353 -0.0043,0.068962 -0.0133,0.1087209 -0.02827,0.1416158 0,0 -0.02418,0.018591 -0.102323,0.035987 -0.07715,0.019321 -0.181905,0.032704 -0.308985,0.040781 -0.148491,0.00881 -0.321521,0.010938 -0.518585,0.012591 z"
     id="path4282-9"
     inkscape:connector-curvature="0"
     style="color:#000000;color-interpolation:sRGB;color-interpolation-filters:linearRGB;fill:#46d200;fill-opacity:1;fill-rule:nonzero;stroke-width:1;stroke-linecap:butt;stroke-linejoin:miter;stroke-miterlimit:4;stroke-opacity:1;stroke-dasharray:none;stroke-dashoffset:0;marker:none;visibility:visible;display:inline;overflow:visible;isolation:auto;mix-blend-mode:normal;enable-background:accumulate;clip-rule:nonzero;color-rendering:auto;image-rendering:auto;shape-rendering:auto;text-rendering:auto"
     inkscape:export-filename="/home/tigert/SparkleShare/atomic-design/social-media/askbot/polygon4292-8.png"
     inkscape:export-xdpi="205.75999"
     inkscape:export-ydpi="205.75999" /><path
     d="M 89.933065,6.2094782 C 89.896394,6.0137758 89.837597,5.8360887 89.758463,5.683092 89.669729,5.5187262 89.545199,5.3821481 89.39085,5.2780433 89.246076,5.1809905 89.071839,5.1106551 88.860968,5.0637925 88.662406,5.0205066 88.42959,4.999889 88.146635,5.0000426 l -1.296242,0.0021 c -0.283761,-0.00115 -0.516975,0.020013 -0.713505,0.063904 -0.212373,0.046024 -0.387251,0.1173284 -0.529806,0.2130928 -0.156318,0.1069562 -0.280266,0.2421857 -0.367866,0.4070733 -0.08098,0.1532875 -0.140327,0.3302136 -0.176872,0.5307481 -0.03361,0.1808799 -0.05026,0.381146 -0.05652,0.6047008 -0.0029,0.2058243 -0.0054,0.4317287 -0.0058,0.6824962 0.0012,0.2478796 0.0036,0.4737229 0.0079,0.6803737 0.0045,0.2215308 0.02351,0.4260859 0.05676,0.6050721 0.03598,0.1985867 0.0963,0.3762551 0.176191,0.5263821 0.08675,0.1643748 0.210137,0.3038427 0.370065,0.4117002 0.143959,0.094195 0.32296,0.1654172 0.528245,0.2085272 0.198582,0.045146 0.432579,0.063889 0.714319,0.06375 l 1.295858,-0.00109 c 0.282566,0.00117 0.516183,-0.020003 0.712333,-0.063114 0.206037,-0.045946 0.383692,-0.1172613 0.531389,-0.2131045 0.156716,-0.1060156 0.28063,-0.2450737 0.367054,-0.4089779 0.0798,-0.1523119 0.137974,-0.3282778 0.174512,-0.5287968 0.03198,-0.1789684 0.05298,-0.3821406 0.0573,-0.605687 0.0051,-0.2048752 0.0077,-0.4317571 0.0078,-0.6796448 0.0017,-0.2503176 -0.0036,-0.4765904 -0.0079,-0.6823035 -0.0074,-0.225293 -0.02586,-0.4241269 -0.05888,-0.6078986 z m -1.784013,2.686786 -1.296252,0.00117 c -0.17951,0.00144 -0.333712,-0.00403 -0.457479,-0.017152 -0.106313,-0.010549 -0.186959,-0.030872 -0.243485,-0.058235 -0.03666,-0.018229 -0.06132,-0.038311 -0.07508,-0.06062 -0.017,-0.029478 -0.0377,-0.082777 -0.05402,-0.1835052 -0.01727,-0.1093595 -0.02853,-0.2489223 -0.03246,-0.4154106 -0.0022,-0.1832517 -0.0057,-0.4038108 -0.0064,-0.6607739 -5.69e-4,-0.2569873 0.0026,-0.4776354 0.0052,-0.6647762 0.0026,-0.1656225 0.01102,-0.3030876 0.02857,-0.412442 0.01311,-0.079597 0.03309,-0.1416286 0.05371,-0.1773217 0.01561,-0.026547 0.04236,-0.047495 0.07626,-0.065586 0.05832,-0.028081 0.141021,-0.047935 0.244729,-0.060453 0.123528,-0.012762 0.278404,-0.019708 0.459905,-0.019309 l 1.294677,-0.00115 c 0.181876,-0.00147 0.33729,0.00639 0.459868,0.01999 0.103936,0.00957 0.186151,0.029952 0.242317,0.059335 0.035,0.018249 0.06009,0.037473 0.07469,0.062563 0.02212,0.037941 0.04128,0.1013666 0.05514,0.1806079 0.01739,0.1074279 0.02757,0.246539 0.03244,0.4134885 0.0027,0.1861297 0.0042,0.4067204 0.0064,0.6636648 -0.0016,0.2569983 -0.0026,0.4766753 -0.006,0.6599963 -0.004,0.1685078 -0.01412,0.3093423 -0.03134,0.4153519 -0.01735,0.100252 -0.03937,0.1536662 -0.05298,0.1792194 -0.01569,0.025695 -0.04152,0.045469 -0.08063,0.064864 -0.05523,0.028043 -0.137055,0.048817 -0.239203,0.059299 -0.12747,0.012733 -0.281589,0.01781 -0.458732,0.01728 z"
     id="path4284-5"
     inkscape:connector-curvature="0"
     style="color:#000000;color-interpolation:sRGB;color-interpolation-filters:linearRGB;fill:#46d200;fill-opacity:1;fill-rule:nonzero;stroke-width:1;stroke-linecap:butt;stroke-linejoin:miter;stroke-miterlimit:4;stroke-opacity:1;stroke-dasharray:none;stroke-dashoffset:0;marker:none;visibility:visible;display:inline;overflow:visible;isolation:auto;mix-blend-mode:normal;enable-background:accumulate;clip-rule:nonzero;color-rendering:auto;image-rendering:auto;shape-rendering:auto;text-rendering:auto"
     inkscape:export-filename="/home/tigert/SparkleShare/atomic-design/social-media/askbot/polygon4292-8.png"
     inkscape:export-xdpi="205.75999"
     inkscape:export-ydpi="205.75999" /><path
     d="m 99.73716,8.3878046 c 5.2e-4,0.1105349 -0.0101,0.2033476 -0.0327,0.2764417 -0.011,0.043852 -0.0293,0.076557 -0.0526,0.096207 -0.0276,0.025532 -0.0751,0.048208 -0.13584,0.062444 -0.0667,0.016092 -0.18878,0.036587 -0.39014,0.035735 l -1.39075,9.37e-4 c -0.121779,7.254e-4 -0.221731,-0.00758 -0.293767,-0.020332 -0.02041,-0.00517 -0.02369,-0.00971 -0.03145,-0.015115 -7.43e-4,-0.00232 -0.02964,-0.034361 -0.05113,-0.1417457 -0.02106,-0.1073518 -0.03516,-0.263855 -0.03557,-0.4646086 l -5.24e-4,-0.5239579 -1.360001,7.131e-4 -1.85e-4,0.5249511 c 9.34e-4,0.2914761 0.01886,0.5302199 0.05535,0.7360555 0.04376,0.2404641 0.137266,0.4422409 0.279749,0.6033632 0.149123,0.166009 0.356401,0.2877934 0.610174,0.3550791 0.220168,0.057592 0.491007,0.086128 0.828424,0.08611 l 1.38963,-9.232e-4 c 0.33191,-9.894e-4 0.61025,-0.027596 0.84548,-0.081188 0.26369,-0.060686 0.48349,-0.1616347 0.65182,-0.3001938 0.17594,-0.1431021 0.30198,-0.3273222 0.3744,-0.5441968 0.0662,-0.1925132 0.0995,-0.4204078 0.0984,-0.6776606 l -10e-4,-3.3956103 -1.36168,-2.738e-4 0.004,3.3876567 z"
     id="path4286-9"
     inkscape:connector-curvature="0"
     style="color:#000000;color-interpolation:sRGB;color-interpolation-filters:linearRGB;fill:#46d200;fill-opacity:1;fill-rule:nonzero;stroke-width:1;stroke-linecap:butt;stroke-linejoin:miter;stroke-miterlimit:4;stroke-opacity:1;stroke-dasharray:none;stroke-dashoffset:0;marker:none;visibility:visible;display:inline;overflow:visible;isolation:auto;mix-blend-mode:normal;enable-background:accumulate;clip-rule:nonzero;color-rendering:auto;image-rendering:auto;shape-rendering:auto;text-rendering:auto"
     inkscape:export-filename="/home/tigert/SparkleShare/atomic-design/social-media/askbot/polygon4292-8.png"
     inkscape:export-xdpi="205.75999"
     inkscape:export-ydpi="205.75999" /><polygon
     points="286.331,308.377 286.358,306.076 278.755,305.994 278.774,304.312 286.013,304.393 286.036,302.09 278.798,302.008 278.813,300.514 286.418,300.596 286.44,298.293 276.36,298.186 276.251,308.268 "
     id="polygon4288-4"
     style="color:#000000;color-interpolation:sRGB;color-interpolation-filters:linearRGB;fill:#46d200;fill-opacity:1;fill-rule:nonzero;stroke-width:1.58688974;stroke-linecap:butt;stroke-linejoin:miter;stroke-miterlimit:4;stroke-opacity:1;stroke-dasharray:none;stroke-dashoffset:0;marker:none;visibility:visible;display:inline;overflow:visible;isolation:auto;mix-blend-mode:normal;enable-background:accumulate;clip-rule:nonzero;color-rendering:auto;image-rendering:auto;shape-rendering:auto;text-rendering:auto"
     transform="matrix(0.46717399,-0.00566495,0.00534141,0.49546662,-22.73617,-141.17155)"
     inkscape:export-filename="/home/tigert/SparkleShare/atomic-design/social-media/askbot/polygon4292-8.png"
     inkscape:export-xdpi="205.75999"
     inkscape:export-ydpi="205.75999" /><path
     d="m 123.83381,5.7812088 c -0.0675,-0.1441487 -0.15664,-0.2688769 -0.26531,-0.368483 -0.10786,-0.1015151 -0.23992,-0.1840513 -0.397,-0.2451881 -0.14232,-0.057931 -0.31351,-0.099803 -0.5022,-0.1270255 -0.18451,-0.027181 -0.39832,-0.040825 -0.63595,-0.040532 l -1.0696,1.579e-4 c -0.29904,0.00136 -0.54782,0.02202 -0.75558,0.065817 -0.22624,0.046118 -0.41102,0.1164121 -0.56274,0.2131729 -0.1655,0.1050696 -0.29618,0.2422347 -0.39128,0.4071836 -0.0851,0.1504631 -0.14809,0.3303093 -0.18816,0.5299726 -0.0343,0.182834 -0.0528,0.386045 -0.0578,0.606786 -0.005,0.2039917 -0.008,0.4299676 -0.008,0.6808082 -0.002,0.2489458 0.005,0.4738402 0.007,0.6777382 0.007,0.2224951 0.0257,0.4261834 0.062,0.6076116 0.0373,0.1996015 0.10135,0.3763787 0.187,0.5274814 0.0929,0.1663371 0.22471,0.3039266 0.3936,0.4118285 0.15278,0.092311 0.34194,0.1650129 0.55981,0.2076423 0.20569,0.043276 0.46246,0.06383 0.75732,0.06384 l 1.06875,-9.996e-4 c 0.24645,-7.115e-4 0.45328,-0.012562 0.63556,-0.037907 0.19781,-0.028947 0.36141,-0.072122 0.50633,-0.1329651 0.15666,-0.064793 0.29079,-0.1526484 0.39825,-0.2574524 0.1083,-0.1062405 0.19658,-0.235217 0.26406,-0.3849587 0.0625,-0.1391613 0.10638,-0.2976972 0.12772,-0.4755733 0.0211,-0.1544099 0.0317,-0.3297506 0.0314,-0.5183518 l 7.8e-4,-0.3336641 -1.04268,5.236e-4 0.001,0.3326765 c -4e-5,0.1326018 -0.006,0.2451738 -0.0148,0.3376811 -0.0104,0.095392 -0.0263,0.1482493 -0.0387,0.1780975 -0.0118,0.029367 -0.0269,0.051567 -0.0459,0.06901 -0.017,0.015092 -0.0522,0.037074 -0.11928,0.059449 -0.0675,0.022303 -0.15733,0.0393 -0.26828,0.047566 -0.11473,0.00948 -0.25769,0.014415 -0.43517,0.015206 l -1.0696,0.00101 c -0.18798,7.661e-4 -0.3542,-0.00548 -0.48555,-0.018123 -0.11199,-0.010557 -0.19841,-0.030886 -0.25885,-0.059286 -0.0574,-0.02557 -0.075,-0.05318 -0.0776,-0.061752 -0.0191,-0.026041 -0.0429,-0.080814 -0.0595,-0.1816079 -0.0192,-0.1074445 -0.0318,-0.2484941 -0.0344,-0.4155339 -0.004,-0.1832909 -0.006,-0.4039504 -0.006,-0.6600454 1.2e-4,-0.2589647 0.003,-0.4806279 0.005,-0.6649691 0.003,-0.1666234 0.0134,-0.3070152 0.032,-0.4135308 0.0135,-0.077741 0.034,-0.1416548 0.0567,-0.1783346 0.0169,-0.026563 0.0433,-0.047506 0.0814,-0.064718 0.0611,-0.028038 0.14883,-0.047954 0.25975,-0.059398 0.13069,-0.012772 0.29381,-0.019588 0.48602,-0.020096 l 1.06918,-1.526e-4 c 0.21912,-3.747e-4 0.40135,0.00777 0.54199,0.025567 0.13979,0.014013 0.21504,0.052152 0.25526,0.078057 0.0251,0.017364 0.0568,0.045188 0.0807,0.1176783 0.0187,0.06054 0.0444,0.1779654 0.0448,0.3957791 l -0.001,0.3355796 1.04308,-5.286e-4 -0.002,-0.3345743 c 0.002,-0.173799 -0.009,-0.3373609 -0.0311,-0.4883441 -0.0252,-0.1686527 -0.07,-0.3183826 -0.13238,-0.4497035 z"
     id="path4290-5"
     inkscape:connector-curvature="0"
     style="color:#000000;color-interpolation:sRGB;color-interpolation-filters:linearRGB;fill:#46d200;fill-opacity:1;fill-rule:nonzero;stroke-width:1;stroke-linecap:butt;stroke-linejoin:miter;stroke-miterlimit:4;stroke-opacity:1;stroke-dasharray:none;stroke-dashoffset:0;marker:none;visibility:visible;display:inline;overflow:visible;isolation:auto;mix-blend-mode:normal;enable-background:accumulate;clip-rule:nonzero;color-rendering:auto;image-rendering:auto;shape-rendering:auto;text-rendering:auto"
     inkscape:export-filename="/home/tigert/SparkleShare/atomic-design/social-media/askbot/polygon4292-8.png"
     inkscape:export-xdpi="205.75999"
     inkscape:export-ydpi="205.75999" /><polygon
     points="337.802,298.848 326.634,298.729 326.608,301.029 330.955,301.078 330.87,308.857 333.349,308.883 333.435,301.104 337.776,301.15 "
     id="polygon4292-8"
     style="color:#000000;color-interpolation:sRGB;color-interpolation-filters:linearRGB;fill:#46d200;fill-opacity:1;fill-rule:nonzero;stroke-width:1.58688974;stroke-linecap:butt;stroke-linejoin:miter;stroke-miterlimit:4;stroke-opacity:1;stroke-dasharray:none;stroke-dashoffset:0;marker:none;visibility:visible;display:inline;overflow:visible;isolation:auto;mix-blend-mode:normal;enable-background:accumulate;clip-rule:nonzero;color-rendering:auto;image-rendering:auto;shape-rendering:auto;text-rendering:auto"
     transform="matrix(0.45041024,-0.00566677,0.00514975,0.49562584,-17.657676,-141.20254)"
     inkscape:export-filename="/home/tigert/SparkleShare/atomic-design/social-media/askbot/polygon4292-8.png"
     inkscape:export-xdpi="205.75999"
     inkscape:export-ydpi="205.75999" /></svg>